<svg xmlns="http://www.w3.org/2000/svg" viewBox="0 0 369.29 109.81"><defs><clipPath id="clip-path"><path d="M156.06,19.84c-.91-.13-10.49-.13-11.34,0l-.91.14-22.6,69.45,1.68.3c.74.14,9.34.14,10.18,0l.94,0,4.52-15.21h23.19l4.6,15.19.92.11c.79.13,1.64.21,2.51.28s7.25-.18,8-.31l1.71-.29L157,20Zm2.24,43.1H141.93l8.15-27.44Z" style="fill:none;clip-rule:evenodd"/></clipPath><clipPath id="clip-path-2"><path d="M220,39c-.9-.13-1.82-.23-2.71-.29a32.71,32.71,0,0,0-5,0,20.49,20.49,0,0,0-2.49.3l-.87.15-12,36-11.9-36-.88-.15c-.74-.14-9.9-.14-10.81,0l-1.87.26L191,89.6l.84.14c.79.13,1.6.23,2.41.29s1.59.1,2.3.1,1.5,0,2.35-.1,1.69-.16,2.54-.29l.85-.13L221.9,39.28Z" style="fill:none;clip-rule:evenodd"/></clipPath><clipPath id="clip-path-3"><path d="M259.88,44.69a19.19,19.19,0,0,0-6.76-5,22.51,22.51,0,0,0-9.27-1.8A24.83,24.83,0,0,0,233.2,40a21.62,21.62,0,0,0-7.55,5.81,23.88,23.88,0,0,0-4.42,8.53,36.6,36.6,0,0,0-1.42,10.34,35.08,35.08,0,0,0,1.47,10.35,21.16,21.16,0,0,0,13,13.9A32.44,32.44,0,0,0,246,90.88a48.39,48.39,0,0,0,8.41-.68,32.57,32.57,0,0,0,7.07-2l1-.41-.05-1a40.59,40.59,0,0,0-1.94-8l-.63-1.17-1.24.48a32.81,32.81,0,0,1-12,2.23c-4.62,0-8.11-1-10.38-3.17-2-1.89-3.19-5.26-3.51-8.81H265l.12-1.42c.06-.69.12-1.56.19-2.53s.09-2,.09-2.86A30.35,30.35,0,0,0,264,52.2a21.68,21.68,0,0,0-4.11-7.51M236,51.28c1.73-2,4.21-3,7.58-3a9.45,9.45,0,0,1,4.3.88,8.45,8.45,0,0,1,2.93,2.4,11.73,11.73,0,0,1,1.81,3.76,19.13,19.13,0,0,1,.57,3.17H232.9A12.66,12.66,0,0,1,236,51.28" style="fill:none;clip-rule:evenodd"/></clipPath><clipPath id="clip-path-4"><path d="M297.11,37.89A18.5,18.5,0,0,0,286.68,41a20,20,0,0,0-3.57,3.07l-.06.07v0c-.2-1.64-.38-2.91-.58-3.88l-.2-1-1-.18c-.72-.13-7.94-.14-8.67,0l-1.54.22V89.51l1.54.22c.74.14,9,.14,9.71,0l1.18-.22V64.05a21.62,21.62,0,0,1,1.19-7,13.24,13.24,0,0,1,2.64-4.56,9.65,9.65,0,0,1,3.59-2.5,11.83,11.83,0,0,1,4.41-.82c2.46,0,4.06.79,5.14,2.44,1.2,1.82,1.68,4.82,1.68,8.91v29l1.37.22c.73.14,9.05.14,9.79,0l1.27-.22V58c0-6.47-1.4-11.48-4.23-14.87s-7.32-5.24-13.23-5.24" style="fill:none;clip-rule:evenodd"/></clipPath><clipPath id="clip-path-5"><path d="M363.23,39c-.74-.14-9.17-.14-9.9,0l-1.47.22V79.48a25.17,25.17,0,0,1-6.28.68,18.85,18.85,0,0,1-5-.61,7.11,7.11,0,0,1-3.34-1.94,9.08,9.08,0,0,1-2.23-4,26,26,0,0,1-.87-7V39.25L333,39c-.74-.14-9.19-.14-9.92,0l-1.41.22V67a32.37,32.37,0,0,0,2.12,12.11,17.78,17.78,0,0,0,5.43,7.41A18,18,0,0,0,337,90.06a47.28,47.28,0,0,0,8.93.82,53.45,53.45,0,0,0,9.65-.87c3-.56,5.53-1.17,7.75-1.8l.92-.31V39.25Z" style="fill:none;clip-rule:evenodd"/></clipPath><clipPath id="clip-path-6"><rect x="5" y="5" width="359.29" height="99.81" style="fill:none"/></clipPath><clipPath id="clip-path-7"><rect x="5" y="5" width="100" height="100" style="fill:none"/></clipPath><clipPath id="clip-path-8"><rect x="5" y="5" width="99.81" height="99.81" style="fill:none"/></clipPath><clipPath id="clip-path-9"><rect x="5" y="5" width="360" height="100" style="fill:none"/></clipPath><clipPath id="clip-path-10"><path d="M83.08,78.26V45.89c0-2.1-.08-2.61-.94-3.47L65,28.34l-8.18-6.87h0a3.3,3.3,0,0,0-4.24,0h0L34.9,36.32l-7.41,6.1.06.07h0A3.29,3.29,0,0,0,26.36,45V81.56a3.23,3.23,0,0,0,3.3,3.29H54.72l.05,0A3.29,3.29,0,0,0,58,81.56s0,0,0,0,0,0,0-.06V55.15l5.43,4.55a3.23,3.23,0,0,0,2.14.8,3.29,3.29,0,0,0,3.29-3.29,3.25,3.25,0,0,0-1.17-2.52h0L56.84,45.57h0a3.3,3.3,0,0,0-4.24,0h0L41.74,54.68h0a3.25,3.25,0,0,0-1.17,2.52,3.29,3.29,0,0,0,3.29,3.29A3.23,3.23,0,0,0,46,59.7l5.43-4.55V78.26H33V46.56l5.76-4.83,16.1-13.25,6.41,5.27L76.49,46.56v35s.12,3.3,3.09,3.3h25.25V78.26Z" style="fill:none;clip-rule:evenodd"/></clipPath></defs><title>Asset 62</title><g id="Layer_2" data-name="Layer 2"><g id="Layer_1-2" data-name="Layer 1"><g style="clip-path:url(#clip-path)"><rect x="116.21" y="14.74" width="68.3" height="80.33" style="fill:#8e9394"/></g><g style="clip-path:url(#clip-path-2)"><rect x="166.46" y="33.63" width="60.44" height="61.5" style="fill:#8e9394"/></g><g style="clip-path:url(#clip-path-3)"><rect x="214.81" y="32.89" width="55.55" height="62.99" style="fill:#8e9394"/></g><g style="clip-path:url(#clip-path-4)"><rect x="266.06" y="32.89" width="53.51" height="61.95" style="fill:#8e9394"/></g><g style="clip-path:url(#clip-path-5)"><rect x="316.67" y="33.93" width="52.62" height="61.95" style="fill:#8e9394"/></g><g style="clip-path:url(#clip-path-6)"><g style="isolation:isolate"><g style="clip-path:url(#clip-path-7)"><g style="clip-path:url(#clip-path-8)"><g style="clip-path:url(#clip-path-9)"><rect width="109.81" height="109.81" style="fill:#ea9a34"/></g></g><g style="clip-path:url(#clip-path-10)"><g style="clip-path:url(#clip-path-9)"><rect x="21.36" y="15.7" width="88.46" height="74.15" style="fill:#fff"/></g></g></g></g></g></g></g></svg>