<svg id="Layer_1" data-name="Layer 1" xmlns="http://www.w3.org/2000/svg" viewBox="0 0 32 32"><title>Assets</title><path d="M27.31,4.69a16,16,0,0,0-22.62,0,16,16,0,0,0,0,22.62,16,16,0,0,0,22.62,0,16,16,0,0,0,0-22.62ZM25.9,25.9a14,14,0,1,1,0-19.8A14,14,0,0,1,25.9,25.9Z" style="fill:#00a451"/><path d="M24.49,7.52A11.92,11.92,0,0,0,16,4h0a12,12,0,0,0,0,24h0A12,12,0,0,0,24.49,7.52ZM5,15.92v0Zm0,1.08H8V15H5A11,11,0,0,1,7.55,9l2.09,2.09,1.41-1.41L9,7.55a11,11,0,0,1,6-2.5V8h2V5.05a10.87,10.87,0,0,1,6,2.5L21,9.64l1.41,1.41L24.45,9A10.87,10.87,0,0,1,27,15H24v2H27a11,11,0,0,1-2.5,6L22.36,21,21,22.36,23,24.45A11,11,0,0,1,17,27V24H15V27a10.94,10.94,0,0,1-6-2.5l2.09-2.09L9.64,21,7.55,23A10.94,10.94,0,0,1,5.05,17Zm3.16,6.77,0,0ZM16,27h0Z" style="fill:#5ed16e"/><path d="M18.47,18.48a3.49,3.49,0,0,0,0-5c-1.36-1.37-7.42-2.48-7.42-2.48s1.11,6.06,2.47,7.43A3.51,3.51,0,0,0,18.47,18.48Z" style="fill:#fff;stroke:#d7d7d7;stroke-miterlimit:10;stroke-width:0.5px"/></svg>