<svg xmlns="http://www.w3.org/2000/svg" viewBox="0 0 40 40"><defs><style>.cls-1{fill:#f3b82f;}.cls-2{fill:#f4da7a;}.cls-3{fill:#f35919;}.cls-4{fill:#414042;}</style></defs><title>Asset 147</title><g id="Layer_2" data-name="Layer 2"><g id="Layer_1-2" data-name="Layer 1"><rect class="cls-1" x="27.5" y="16.25" width="10" height="21.25"/><path class="cls-2" d="M2.5,16.25V37.5H26.25V15.66L13.45,2.86Z"/><polygon class="cls-3" points="33.75 2.5 28.75 2.5 28.75 6.25 25 2.5 21.25 2.5 16.25 2.5 14.41 2.5 26.91 15 27.5 15 37.5 15 33.75 11.25 33.75 2.5"/><path class="cls-4" d="M36.25,10.86V2.5A2.5,2.5,0,0,0,33.75,0h-5a2.49,2.49,0,0,0-1.87.84L26.77.73A2.5,2.5,0,0,0,25,0H14.48a2.5,2.5,0,0,0-1.87.92l-12,14.5A2.5,2.5,0,0,0,0,17V37.5A2.5,2.5,0,0,0,2.5,40h35A2.5,2.5,0,0,0,40,37.5V15.65a3.28,3.28,0,0,0-.73-1.77Zm-10,5.39V37.5H2.5V16.25l11-13.39,12.8,12.8ZM37.5,37.5h-10V16.25h10ZM27.5,15h-.59L14.41,2.5H25l3.75,3.75V2.5h5v8.75L37.5,15Z"/><path class="cls-4" d="M15.45,22c-1.64-.59-2.3-1-2.3-1.62s.41-1.09,1.65-1.09a6,6,0,0,1,2.76.67l.6-2.15a7.22,7.22,0,0,0-2.72-.63v-1.8H13.21v1.94C11,17.66,10.1,19,10.1,20.67c0,1.85,1.51,2.8,3.55,3.49,1.43.48,2,.94,2,1.66S14.93,27,13.83,27a6.79,6.79,0,0,1-3.18-.84L10,28.4a8.39,8.39,0,0,0,3.17.82v1.69h2.22V29.07a3.49,3.49,0,0,0,3.28-3.51v0C18.7,23.81,17.71,22.77,15.45,22Z"/></g></g></svg>