<svg xmlns="http://www.w3.org/2000/svg" viewBox="0 0 40 40"><defs><style>.cls-1{fill:#ff9272;}.cls-2{fill:#5acdf5;}.cls-3{fill:#fffab3;}.cls-4{fill:#414042;}</style></defs><title>Asset 146</title><g id="Layer_2" data-name="Layer 2"><g id="Layer_1-2" data-name="Layer 1"><path class="cls-1" d="M33.2,31.43a17.45,17.45,0,0,0,3.18-17.64L22.14,20.37Z"/><path class="cls-1" d="M33.23,32.35,21.06,20.18l15.66-7.23.24.63a18.07,18.07,0,0,1-3.29,18.27Zm-10-11.79,9.94,9.94A16.82,16.82,0,0,0,36,14.65Z"/><path class="cls-2" d="M18.75,2.46A17.52,17.52,0,1,0,31.39,33.18L18.75,20.47Z"/><path class="cls-2" d="M20,38.08A18.15,18.15,0,0,1,18.71,1.84l.67,0V20.21l12.93,13-.51.44A18.07,18.07,0,0,1,20,38.08ZM18.12,3.15a16.89,16.89,0,1,0,12.34,30L18.12,20.73Z"/><path class="cls-3" d="M21.25,2.54V18l14-6.63A17.46,17.46,0,0,0,21.25,2.54Z"/><path class="cls-3" d="M20.62,19V1.87l.67,0a18,18,0,0,1,14.5,9.17l.33.58ZM21.87,3.23V17l12.49-5.91A16.79,16.79,0,0,0,21.87,3.23Z"/><path class="cls-4" d="M20,0A20,20,0,1,0,40,20,20,20,0,0,0,20,0Zm0,37.46a17.52,17.52,0,0,1-1.23-35v18L31.39,33.18A17.36,17.36,0,0,1,20,37.46ZM37.5,20a17.41,17.41,0,0,1-4.3,11.46L22.14,20.37l14.24-6.58A17.46,17.46,0,0,1,37.5,20ZM21.25,18V2.54a17.46,17.46,0,0,1,14,8.85Z"/></g></g></svg>