<svg xmlns="http://www.w3.org/2000/svg" viewBox="0 0 25 23.75"><defs><style>.cls-1{fill:#918f90;}.cls-2{fill:#ffb300;}.cls-3{fill:#d99300;}</style></defs><title>Asset 2</title><g id="Layer_2" data-name="Layer 2"><g id="Layer_1-2" data-name="Layer 1"><path id="credit_card" class="cls-1" d="M14.08,1.48a2.77,2.77,0,0,1,2,.81L2.3,16a2.78,2.78,0,0,1,0-3.93L12.12,2.3a2.77,2.77,0,0,1,2-.81m3.44,2.29L21.45,7.7a2.78,2.78,0,0,1,0,3.93l-9.82,9.82a2.78,2.78,0,0,1-3.93,0L3.77,17.52,17.52,3.77M14.08,0a4.23,4.23,0,0,0-3,1.25L1.25,11.07a4.26,4.26,0,0,0,0,6l5.4,5.4a4.26,4.26,0,0,0,6,0l9.82-9.82a4.26,4.26,0,0,0,0-6l-5.4-5.4a4.23,4.23,0,0,0-3-1.25Z"/><path class="cls-2" d="M22,17.91,19.36,9.13l-2.62,8.64a.39.39,0,0,1-.37.26.37.37,0,0,1-.35-.29L13.16,4.4,10.29,17.89a.37.37,0,0,1-.36.29H8v1.08h3.15l1.65-7.72a.37.37,0,0,1,.73,0l1.65,7.72h2.3l1.52-5a.37.37,0,0,1,.71,0l1.52,5h3V18.18h-1.9A.37.37,0,0,1,22,17.91Z"/><path class="cls-3" d="M24.63,17.44h-2l-2.92-9.7a.37.37,0,0,0-.36-.26h0a.37.37,0,0,0-.36.26l-2.56,8.44L13.53,2.55a.37.37,0,0,0-.73,0L9.62,17.44h-2a.37.37,0,0,0-.37.37v1.83a.37.37,0,0,0,.37.37h3.83a.37.37,0,0,0,.36-.29l1.35-6.32,1.35,6.32a.37.37,0,0,0,.36.29h2.88a.37.37,0,0,0,.36-.26l1.24-4.12,1.24,4.12A.37.37,0,0,0,21,20h3.67a.37.37,0,0,0,.37-.37V17.81A.37.37,0,0,0,24.63,17.44Zm-.37,1.83h-3l-1.52-5a.37.37,0,0,0-.71,0l-1.52,5h-2.3l-1.65-7.72a.37.37,0,0,0-.73,0l-1.65,7.72H8V18.18H9.92a.37.37,0,0,0,.36-.29L13.16,4.4,16,17.74a.37.37,0,0,0,.35.29.39.39,0,0,0,.37-.26l2.62-8.64L22,17.91a.37.37,0,0,0,.36.26h1.9Z"/></g></g></svg>