<svg xmlns="http://www.w3.org/2000/svg" viewBox="0 0 37.41 40"><title>Asset 210</title><g id="Layer_2" data-name="Layer 2"><g id="Layer_1-2" data-name="Layer 1"><path d="M19.82,2.28H5.24a3,3,0,0,0-3,3V34.76a3,3,0,0,0,3,3H19.82a3,3,0,0,0,3-3V5.24A3,3,0,0,0,19.82,2.28ZM9.11,4.56h6.83V5.7H9.11ZM12.53,36a1.71,1.71,0,0,1,0-3.42h0a1.71,1.71,0,0,1,0,3.42Zm8-5.13H4.56V8H20.5Z" style="fill:#d7d7d7"/><path d="M12.53,32.6h0a1.71,1.71,0,1,0,1.71,1.71A1.71,1.71,0,0,0,12.52,32.6Z" style="fill:#918f90"/><rect x="4.56" y="7.97" width="15.95" height="22.91" style="fill:#fff"/><path d="M19.82,0H5.24A5.25,5.25,0,0,0,0,5.24V34.76A5.25,5.25,0,0,0,5.24,40H19.82a5.25,5.25,0,0,0,5.24-5.24V5.24A5.25,5.25,0,0,0,19.82,0Zm3,34.76a3,3,0,0,1-3,3H5.24a3,3,0,0,1-3-3V5.24a3,3,0,0,1,3-3H19.82a3,3,0,0,1,3,3Z" style="fill:#918f90"/><circle cx="25.28" cy="14.08" r="10.68" style="fill:#fff"/><path d="M25.28,3.08a11,11,0,1,0,11,11A11,11,0,0,0,25.28,3.08Zm0,20.91a9.91,9.91,0,1,1,9.91-9.91A9.91,9.91,0,0,1,25.28,24Z" style="fill:#78c283"/><path d="M25.28,26.2A12.12,12.12,0,1,1,37.41,14.08,12.14,12.14,0,0,1,25.28,26.2Zm0-20.91a8.79,8.79,0,1,0,8.79,8.79A8.8,8.8,0,0,0,25.28,5.29Z" style="fill:#78c283"/><path d="M30.77,11.26a.72.72,0,0,0-.24-.5l-1.13-1a.68.68,0,0,0-.4-.17.69.69,0,0,0-.57.23L24,14.72l-2.17-1.67a.68.68,0,0,0-.38-.16h-.13a.7.7,0,0,0-.47.26l-.94,1.18a.73.73,0,0,0,.1,1l3.81,3a.68.68,0,0,0,.38.16.69.69,0,0,0,.57-.23l5.78-6.52A.73.73,0,0,0,30.77,11.26Z" style="fill:#78c283"/></g></g></svg>