<svg xmlns="http://www.w3.org/2000/svg" viewBox="0 0 59.42 39.93"><title>Asset 213</title><g id="Layer_2" data-name="Layer 2"><g id="Layer_1-2" data-name="Layer 1"><path d="M45.09,6.86H3a3,3,0,0,0-3,3V36.92a3,3,0,0,0,3,3H45.09a3,3,0,0,0,3-3V9.87A3,3,0,0,0,45.09,6.86ZM23.6,27a.75.75,0,0,0,.89,0L30,22.94l14,14h-40l14-14ZM45.09,9.87V10L24,25.47,3,10V9.87Zm0,2v24L31.27,22ZM16.83,22,3,35.86v-24Z" style="fill:#918f90"/><circle cx="44.18" cy="15.23" r="13.42" style="fill:#fff"/><path d="M44.18,1.42A13.82,13.82,0,1,0,58,15.23,13.82,13.82,0,0,0,44.18,1.42Zm0,26.27A12.45,12.45,0,1,1,56.64,15.23,12.45,12.45,0,0,1,44.18,27.69Z" style="fill:#78c283"/><path d="M44.18,30.47A15.23,15.23,0,1,1,59.42,15.24,15.25,15.25,0,0,1,44.18,30.47Zm0-26.27a11,11,0,1,0,11,11A11.05,11.05,0,0,0,44.18,4.19Z" style="fill:#78c283"/><path d="M51.08,11.7a.9.9,0,0,0-.31-.63L49.36,9.83a.86.86,0,0,0-.5-.21.87.87,0,0,0-.72.29L42.63,16,39.9,14a.86.86,0,0,0-.48-.2h-.16a.87.87,0,0,0-.59.33l-1.18,1.49a.91.91,0,0,0,.12,1.26l4.79,3.82a.86.86,0,0,0,.48.2.87.87,0,0,0,.72-.29l7.26-8.19A.92.92,0,0,0,51.08,11.7Z" style="fill:#78c283"/></g></g></svg>