<svg id="Layer_1" data-name="Layer 1" xmlns="http://www.w3.org/2000/svg" viewBox="0 0 13.5 7.62"><defs><style>.cls-1{fill:#555;}</style></defs><path class="cls-1" d="M10.06,2.31A6.62,6.62,0,0,1,13.5,7.62H0A6.62,6.62,0,0,1,3.44,2.31L2.32.37a.23.23,0,0,1,0-.14A.23.23,0,0,1,2.51,0a.23.23,0,0,1,.21.13l1.14,2a7.15,7.15,0,0,1,5.78,0l1.14-2a.23.23,0,0,1,.44.1.23.23,0,0,1,0,.14ZM3.64,5.7a.58.58,0,0,0,.57-.57.57.57,0,0,0-.57-.56.56.56,0,0,0-.56.56A.57.57,0,0,0,3.64,5.7Zm6.22,0a.57.57,0,0,0,.56-.57.56.56,0,0,0-.56-.56.57.57,0,0,0-.57.56A.58.58,0,0,0,9.86,5.7Z"/></svg>