<svg id="Layer_1" data-name="Layer 1" xmlns="http://www.w3.org/2000/svg" viewBox="0 0 75 75"><defs><style>.cls-1{fill:#e6e6e5;}.cls-2{fill:#ec7b72;}.cls-3{fill:#676767;}.cls-4{fill:#88c057;}.cls-5{fill:#ffcc67;}.cls-6{fill:#fff;}</style></defs><title>Vector Smart Object</title><polygon class="cls-1" points="37.5 10.02 10 27.81 10 70.36 10 70.36 65 70.36 65 27.81 37.5 10.02"/><path class="cls-2" d="M73.72,35.24,39.2.72a2.45,2.45,0,0,0-3.47,0L1.42,35a4.59,4.59,0,0,0-.48,6.08,4.41,4.41,0,0,0,6.55.34l30-30,30,29.95a4.44,4.44,0,0,0,6.26,0h0A4.38,4.38,0,0,0,73.72,35.24Z"/><rect class="cls-3" x="28.72" y="49.63" width="17.56" height="20.73"/><path class="cls-3" d="M37.5,29.7A6.53,6.53,0,1,0,44,36.23,6.53,6.53,0,0,0,37.5,29.7Z"/><path class="cls-4" d="M72.68,70.36H2.32a2.32,2.32,0,1,0,0,4.64H72.68a2.32,2.32,0,0,0,0-4.64Z"/><path class="cls-5" d="M25.12,51.49l-3.71-4.58a1,1,0,0,0-.74-.35H1.87a1,1,0,0,0-.94.95v9.14a.94.94,0,0,0,.94.94h18.8a1,1,0,0,0,.74-.34l3.71-4.58A.93.93,0,0,0,25.12,51.49Z"/><rect class="cls-5" x="10.43" y="56.56" width="2.7" height="13.79"/><path class="cls-6" d="M5.94,50.56a.88.88,0,0,0-.51.13.4.4,0,0,0-.2.38.43.43,0,0,0,.2.39,3.15,3.15,0,0,0,.84.29,2.19,2.19,0,0,1,1,.44,1,1,0,0,1,.33.83,1.11,1.11,0,0,1-.41.89,1.65,1.65,0,0,1-1.09.34,2.56,2.56,0,0,1-1.75-.67L4.77,53a2,2,0,0,0,1.32.55.94.94,0,0,0,.54-.14.45.45,0,0,0,.2-.39.42.42,0,0,0-.19-.38A1.82,1.82,0,0,0,6,52.43a5.47,5.47,0,0,1-.7-.2A2,2,0,0,1,4.86,52a1,1,0,0,1-.37-.86,1.06,1.06,0,0,1,.42-.9,1.74,1.74,0,0,1,1-.32,2.45,2.45,0,0,1,.8.14,2,2,0,0,1,.69.37l-.38.53a1.53,1.53,0,0,0-.51-.27A2,2,0,0,0,5.94,50.56Z"/><path class="cls-6" d="M12,53.63a2.3,2.3,0,0,1-3.14,0,2.08,2.08,0,0,1-.64-1.55,2.05,2.05,0,0,1,.64-1.55,2.14,2.14,0,0,1,1.57-.63,2.14,2.14,0,0,1,1.57.63,2.05,2.05,0,0,1,.64,1.55A2.08,2.08,0,0,1,12,53.63ZM11.44,51a1.45,1.45,0,0,0-2.1,0,1.56,1.56,0,0,0,0,2.15,1.45,1.45,0,0,0,2.1,0,1.56,1.56,0,0,0,0-2.15Z"/><path class="cls-6" d="M13.5,54.21V50h.7v3.52h1.92v.68Z"/><path class="cls-6" d="M20.07,50.56a1.92,1.92,0,0,1,.61,1.53,2,2,0,0,1-.59,1.55,2.49,2.49,0,0,1-1.8.57H16.9V50h1.44A2.46,2.46,0,0,1,20.07,50.56ZM20,52.1c0-1-.55-1.44-1.66-1.44h-.7v2.88h.78a1.71,1.71,0,0,0,1.17-.36A1.39,1.39,0,0,0,20,52.1Z"/></svg>