<svg id="Layer_1" data-name="Layer 1" xmlns="http://www.w3.org/2000/svg" viewBox="0 0 76 76.66"><defs><style>.cls-1{fill:#ffcc67;}.cls-2{fill:#e7b95e;}.cls-3{fill:#88c057;}.cls-4{fill:#525252;}.cls-5{fill:#ec7b72;}.cls-6{fill:#e6e6e5;}.cls-7{fill:#cdcccc;}.cls-8{fill:#98d0f1;}.cls-9{fill:#fff;}.cls-10{fill:#676767;}</style></defs><title>Vector Smart Object</title><path class="cls-1" d="M20.33,63S32,73.58,37.42,76.26c0,0,2.29,1.13,3.2-.4,0,0,3.54.44,4.53-1.68,0,0,2.52,1.33,3.56-2.09,0,0,3.37-.44,2.43-3.51,0,0-10.3-11.44-12.38-12.24l-1.59-5.05-10.45-.74-1.53-.4Z"/><path class="cls-2" d="M49,53.33l-7.43-2.64s-1.11-1.16-3.92.21-4.74.89-5.72,3.11a31.84,31.84,0,0,0-1.62,5.81s.85,2.6,3.71.34a13.5,13.5,0,0,0,2.48-3.5l2.27-.32L50.82,68.56,54,66.64l2.14-.81L50.4,52.56Z"/><path class="cls-2" d="M23.38,65.72a3.41,3.41,0,0,1,3.32,2.35s3.15-2.75,4.23,1.55c0,0,3.09-1.33,3.33,2.26,0,0,2.13-.12,2.25,1.81l-.09,2s-3.53,1.86-4.24-1.26c0,0-3.15.82-3.08-2.33,0,0-3.31,1.69-3.42-2.6,0,0-2.43.37-2.47-2.58Z"/><path class="cls-2" d="M41.92,65.71a50.81,50.81,0,0,1,4.17,3.87l0,0a5.94,5.94,0,0,1,2.29,2.21,5,5,0,0,0-1.14-1.07C46,69.79,45.52,70.09,41.92,65.71Z"/><path class="cls-2" d="M38.78,68.92a44.69,44.69,0,0,1,4.55,4.37l0,0c.63.29,1.26.59,1.87.93-.67-.19-1.33-.42-2-.65h0l0,0A45.82,45.82,0,0,1,38.78,68.92Z"/><path class="cls-2" d="M34.58,70.74c3,1.46,3.39,3.27,5,4.48a4.39,4.39,0,0,0,1.06.64,4.11,4.11,0,0,1-2.2-1.29,19.13,19.13,0,0,0-2.9-3Z"/><path class="cls-3" d="M55.85,48.22l-6.71,3.51A1,1,0,0,0,48.65,53l5.5,14.88a1,1,0,0,0,1.32.6l7.88-3Z"/><path class="cls-4" d="M75.88,62.36,65.3,42.5A1,1,0,0,0,64,42.08L51,48.79a.8.8,0,0,0-.36,1.12l11,20.19a.8.8,0,0,0,1.08.33l12.72-6.7A1,1,0,0,0,75.88,62.36Z"/><path class="cls-5" d="M20.15,45.43l6.71,3.5a1,1,0,0,1,.49,1.26l-5.5,14.88a1,1,0,0,1-1.32.61l-7.88-3Z"/><path class="cls-4" d="M25,46,12.1,39.2a1,1,0,0,0-1.35.41L.12,59.57a1,1,0,0,0,.42,1.36l12.72,6.7a.8.8,0,0,0,1.08-.32l11-20.2A.8.8,0,0,0,25,46Z"/><path class="cls-1" d="M43.55,15.07a7.54,7.54,0,1,1,7.53-7.53A7.54,7.54,0,0,1,43.55,15.07Zm0-13.74a6.21,6.21,0,1,0,6.2,6.21A6.22,6.22,0,0,0,43.55,1.33Z"/><path class="cls-6" d="M32.32,27.11h9.42a0,0,0,0,1,0,0v7.16a0,0,0,0,1,0,0H32.68a.36.36,0,0,1-.36-.36V27.11A0,0,0,0,1,32.32,27.11Z"/><rect class="cls-7" x="33.7" y="29.1" width="1.55" height="5.16"/><path class="cls-7" d="M35.26,28.68V39.91a.64.64,0,0,1-.19.45L34,41.43a.65.65,0,0,0,0,.91l.71.71a.65.65,0,0,1,0,.91l-.7.71a.65.65,0,0,0,0,.92l4.14,3.93a.65.65,0,0,0,.91,0l2.75-2.85A.67.67,0,0,0,42,46.2V28.68a.65.65,0,0,0-.65-.65H35.9A.64.64,0,0,0,35.26,28.68Z"/><path class="cls-6" d="M38.7,28H35.9a.64.64,0,0,0-.64.65V39.91a.64.64,0,0,1-.19.45L34,41.43a.65.65,0,0,0,0,.91l.71.71a.65.65,0,0,1,0,.91l-.7.71a.65.65,0,0,0,0,.92l4.14,3.93a.64.64,0,0,0,.54.16Z"/><path class="cls-6" d="M38.51,5.75A12.48,12.48,0,1,0,51,18.22,12.47,12.47,0,0,0,38.51,5.75Zm0,9.72A2.51,2.51,0,1,1,41,13,2.51,2.51,0,0,1,38.51,15.47Z"/><path class="cls-7" d="M38.51,8.1A10.13,10.13,0,1,0,48.63,18.22,10.13,10.13,0,0,0,38.51,8.1Zm0,7.37A2.51,2.51,0,1,1,41,13,2.51,2.51,0,0,1,38.51,15.47Z"/><path class="cls-1" d="M47.64,1.22l-.85,1.05a6.19,6.19,0,1,1-7.72,9.54l-.85,1A7.53,7.53,0,1,0,47.64,1.22Z"/><path class="cls-8" d="M55.52,10.53a4.25,4.25,0,0,0-4,1.16L48,15.23a4.23,4.23,0,0,0-1.16,4,20.92,20.92,0,0,0,4.67,8.84A9.11,9.11,0,1,0,64.36,15.2,21,21,0,0,0,55.52,10.53Z"/><circle class="cls-9" cx="58.71" cy="22.43" r="6.23" transform="translate(0.68 46.56) rotate(-43.48)"/><rect class="cls-10" x="46.9" y="9.8" width="5.87" height="7.36" rx="0.55" transform="translate(5.06 39.18) rotate(-45)"/></svg>