<svg id="Layer_1" data-name="Layer 1" xmlns="http://www.w3.org/2000/svg" viewBox="0 0 75 64.22"><defs><style>.cls-1{fill:#ffcc67;}.cls-2{fill:#e7b95e;}.cls-3{fill:#e6e6e5;}.cls-4{fill:#ec7b72;}.cls-5{fill:#676767;}.cls-6{fill:#98d0f1;}.cls-7{fill:#88c057;}.cls-8{fill:#cdcccc;}.cls-9{fill:#d66556;}.cls-10{fill:#fff;}</style></defs><title>Vector Smart Object</title><polygon class="cls-1" points="57.51 14.71 51.67 12.62 51.67 1.21 57.51 1.21 57.51 14.71"/><rect class="cls-2" x="51.68" y="1.21" width="5.83" height="3.36"/><rect class="cls-1" x="50.33" y="0.02" width="8.53" height="3.56" rx="0.6"/><polygon class="cls-3" points="36.44 2.7 5.14 18.07 5.14 52.18 5.14 52.18 67.74 52.18 67.74 18.07 36.44 2.7"/><path class="cls-4" d="M72,19.85,37,.15a1.2,1.2,0,0,0-1.16,0l-35,19.7a1.63,1.63,0,0,0,1.6,2.84l34-19.13,34,19.13A1.63,1.63,0,1,0,72,19.85Z"/><path class="cls-5" d="M70.12,52.09H2.76a1,1,0,1,0,0,2H70.12a1,1,0,1,0,0-2Z"/><path class="cls-5" d="M48.92,22.29a9.07,9.07,0,0,0-9.07,9.07V45.61H58V31.36A9.08,9.08,0,0,0,48.92,22.29Z"/><path class="cls-6" d="M41.09,44.37v-13a7.84,7.84,0,0,1,15.67,0v13Z"/><rect class="cls-5" x="40.54" y="30.07" width="16.55" height="1.11"/><rect class="cls-5" x="40.54" y="37.1" width="16.55" height="1.11"/><rect class="cls-5" x="37.65" y="33.56" width="22.54" height="1.11" transform="translate(83.04 -14.81) rotate(90)"/><path class="cls-5" d="M24,22.29a9.07,9.07,0,0,0-9.07,9.07V45.61H33V31.36A9.07,9.07,0,0,0,24,22.29Z"/><path class="cls-6" d="M16.12,44.37v-13a7.83,7.83,0,0,1,15.66,0v13Z"/><rect class="cls-5" x="15.57" y="30.07" width="16.55" height="1.11"/><rect class="cls-5" x="15.57" y="37.1" width="16.55" height="1.11"/><rect class="cls-5" x="12.68" y="33.56" width="22.54" height="1.11" transform="translate(58.06 10.16) rotate(90)"/><path class="cls-7" d="M64,54.14a4,4,0,0,0,.49-1.9,4.11,4.11,0,0,0-3.42-4.05v-.07a4.12,4.12,0,0,0-8.24,0s0,0,0,.07a4.11,4.11,0,0,0-3.43,4.05,4.06,4.06,0,0,0,.49,1.9Z"/><path class="cls-7" d="M23,54.14a4.06,4.06,0,0,0,.48-1.9A4.11,4.11,0,0,0,20,48.19v-.07a4.12,4.12,0,0,0-8.24,0s0,0,0,.07a4.12,4.12,0,0,0-3.43,4.05,4.06,4.06,0,0,0,.49,1.9Z"/><path class="cls-3" d="M64.94,25.78H49.62a3.44,3.44,0,0,0-3.44,3.44V58.71a3.43,3.43,0,0,0,3.44,3.43H71.57A3.43,3.43,0,0,0,75,58.71V35.84Z"/><path class="cls-7" d="M64.94,25.78v6.63a3.43,3.43,0,0,0,3.43,3.43H75Z"/><path class="cls-1" d="M54.64,29.92l-3.08,2v4.47a.29.29,0,0,0,.3.29h5.56a.29.29,0,0,0,.3-.29V31.92Z"/><path class="cls-5" d="M58.7,32.75l-3.87-3.87a.28.28,0,0,0-.39,0L50.6,32.73a.5.5,0,1,0,.68.72l3.35-3.36L58,33.44a.49.49,0,0,0,.7,0h0A.49.49,0,0,0,58.7,32.75Z"/><rect class="cls-5" x="53.65" y="34.36" width="1.97" height="2.32"/><rect class="cls-8" x="50.17" y="40.39" width="11.81" height="1.58"/><rect class="cls-8" x="50.17" y="44.67" width="20.85" height="1.58"/><rect class="cls-8" x="50.17" y="48.94" width="20.85" height="1.58"/><rect class="cls-8" x="50.17" y="53.21" width="10.99" height="1.58"/><path class="cls-9" d="M69.33,58.26h-3l-1.09,5.6a.3.3,0,0,0,.47.3l2.11-1.58L70,64.16a.3.3,0,0,0,.47-.3Z"/><path class="cls-4" d="M71.71,56.15h0a.62.62,0,0,1-.13-.66h0a.61.61,0,0,0-.32-.79h0a.6.6,0,0,1-.38-.56h0a.6.6,0,0,0-.6-.6h0a.6.6,0,0,1-.56-.37h0a.6.6,0,0,0-.79-.33h0a.62.62,0,0,1-.66-.13h0a.59.59,0,0,0-.85,0h0a.62.62,0,0,1-.66.13h0a.6.6,0,0,0-.79.33h0a.6.6,0,0,1-.56.37h0a.6.6,0,0,0-.6.6h0a.6.6,0,0,1-.37.56h0a.61.61,0,0,0-.32.79h0a.62.62,0,0,1-.13.66h0A.6.6,0,0,0,64,57h0a.6.6,0,0,1,.13.65h0a.6.6,0,0,0,.33.79h0a.62.62,0,0,1,.37.56h0a.6.6,0,0,0,.6.61h0A.59.59,0,0,1,66,60h0a.61.61,0,0,0,.79.33.58.58,0,0,1,.66.13h0a.61.61,0,0,0,.85,0h0a.59.59,0,0,1,.66-.13h0a.61.61,0,0,0,.79-.33h0a.59.59,0,0,1,.56-.37h0a.6.6,0,0,0,.6-.61h0a.62.62,0,0,1,.38-.56h0a.6.6,0,0,0,.32-.79h0a.6.6,0,0,1,.13-.65h0A.6.6,0,0,0,71.71,56.15Z"/><circle class="cls-10" cx="67.85" cy="56.58" r="2.64"/></svg>