<svg xmlns="http://www.w3.org/2000/svg" viewBox="0 0 39.95 40"><defs><style>.cls-1{fill:#ffd200;}</style></defs><title>Asset 187</title><g id="Layer_2" data-name="Layer 2"><g id="Layer_1-2" data-name="Layer 1"><path class="cls-1" d="M38.74,28,26.55,4.76A7.76,7.76,0,0,0,20,0c-1.52,0-4.4.62-6.58,4.77L1.2,28A8.27,8.27,0,0,0,1,36.21,8.76,8.76,0,0,0,8.81,40H31.13A8.76,8.76,0,0,0,39,36.21,8.27,8.27,0,0,0,38.74,28Zm-7.61,9.49H8.81c-5.37,0-7.8-3.75-5.4-8.32L15.6,5.92a4.5,4.5,0,0,1,8.74,0L36.53,29.14c2.4,4.59,0,8.34-5.4,8.34ZM20,28.73a1.87,1.87,0,1,0,1.87,1.88h0A1.87,1.87,0,0,0,20,28.73Zm-1.87-2.5h3.75L23.1,13.74H16.85Z"/></g></g></svg>