<svg xmlns="http://www.w3.org/2000/svg" viewBox="0 0 40 40.03"><title>Asset 339</title><g id="Layer_2" data-name="Layer 2"><g id="Layer_1-2" data-name="Layer 1"><path d="M31.23,13.62,34.91,10l-5-4.92L26.39,8.77a7.91,7.91,0,0,0-2.64-1.12V2.5h-7.5V7.65a7.79,7.79,0,0,0-2.61,1.13L10.07,5.13,5.14,10.07,8.81,13.6a8,8,0,0,0-1.12,2.64H2.5v7.51H7.69a7.84,7.84,0,0,0,1.13,2.62L5.18,30l4.94,4.91,3.52-3.66a8,8,0,0,0,2.61,1.11v5.19h7.5V32.32a8,8,0,0,0,2.64-1.14L30,34.84l4.93-5-3.66-3.51a7.81,7.81,0,0,0,1.12-2.62h5.15v-7.5H32.37A8.12,8.12,0,0,0,31.23,13.62Z" style="fill:#dcdcdc"/><path d="M37.51,13.75H34.66l2-1.95a2.5,2.5,0,0,0,0-3.53l0,0L31.69,3.36a2.48,2.48,0,0,0-1.76-.73h0a2.49,2.49,0,0,0-1.8.73L26.26,5.3V2.5A2.52,2.52,0,0,0,23.75,0h-7.5a2.5,2.5,0,0,0-2.5,2.5V5.33l-1.91-2a2.51,2.51,0,0,0-1.77-.73h0a2.55,2.55,0,0,0-1.79.73l-4.92,5a2.5,2.5,0,0,0,0,3.54l0,0,2,1.87H2.5A2.5,2.5,0,0,0,0,16.25v7.5a2.52,2.52,0,0,0,2.5,2.51H5.37L3.42,28.2a2.5,2.5,0,0,0,0,3.53l0,0,4.95,4.91a2.59,2.59,0,0,0,1.77.73h0a2.55,2.55,0,0,0,1.78-.77l1.82-1.91v2.82A2.49,2.49,0,0,0,16.24,40h7.51a2.51,2.51,0,0,0,2.51-2.49V34.61l1.94,2a2.49,2.49,0,0,0,1.78.75h0a2.52,2.52,0,0,0,1.77-.74l4.92-5a2.48,2.48,0,0,0,0-3.52l0,0-1.9-1.83H37.5a2.5,2.5,0,0,0,2.5-2.5V16.25A2.51,2.51,0,0,0,37.51,13.75Zm0,10H32.37a8.24,8.24,0,0,1-1.12,2.62l3.66,3.51-4.92,5L26.4,31.18a8,8,0,0,1-2.64,1.14v5.19H16.25V32.32a8,8,0,0,1-2.61-1.11l-3.52,3.66L5.18,30l3.64-3.59a7.84,7.84,0,0,1-1.13-2.62H2.5v-7.5H7.69a7.86,7.86,0,0,1,1.12-2.63L5.14,10.07l4.93-4.94,3.58,3.65a7.84,7.84,0,0,1,2.62-1.13V2.5h7.48V7.65a7.91,7.91,0,0,1,2.64,1.12L29.93,5.1l5,4.92-3.65,3.6a7.91,7.91,0,0,1,1.14,2.63h5.14Z" style="fill:#a4a4a4"/><rect x="22.99" y="18.51" width="3.98" height="8.46" style="fill:#f3b82f"/><path d="M13,18.51V27h9.45V18.28L17.4,13.19Z" style="fill:#f4da7a"/><polygon points="25.48 13.04 23.48 13.04 23.48 14.53 21.99 13.04 20.5 13.04 18.51 13.04 17.78 13.04 22.76 18.01 22.99 18.01 26.97 18.01 25.48 16.52 25.48 13.04" style="fill:#f35919"/><path d="M26.47,16.37V13a1,1,0,0,0-1-1h-2a1,1,0,0,0-.75.34l0-.05A1.08,1.08,0,0,0,22,12H17.8a1,1,0,0,0-.74.37l-4.79,5.77a1,1,0,0,0-.23.63V27a1,1,0,0,0,1,1H27a1,1,0,0,0,1-1V18.24a1.27,1.27,0,0,0-.29-.67Zm-4,2.14V27H13V18.51l4.36-5.32,5.09,5.09ZM27,27H23V18.51h4Zm-4-9h-.24l-5-5H22l1.51,1.49V13h2v3.48L27,18Z" style="fill:#414042"/><path d="M24.46,18.34a.67.67,0,0,0-.22-.46l-1-.9a.63.63,0,0,0-.88.06l-4,4.44-2-1.51a.58.58,0,0,0-.35-.15H15.9a.67.67,0,0,0-.43.24l-.86,1.07a.67.67,0,0,0,.09.92l3.47,2.79a.63.63,0,0,0,.87-.06h0l5.26-6A.65.65,0,0,0,24.46,18.34Z" style="fill:#78c283;stroke:#fff;stroke-miterlimit:10;stroke-width:0.6713661666605093px"/></g></g></svg>