<svg xmlns="http://www.w3.org/2000/svg" viewBox="0 0 40 40"><title>Asset 223</title><g id="Layer_2" data-name="Layer 2"><g id="Layer_1-2" data-name="Layer 1"><path d="M34.91,19.7a10.67,10.67,0,0,1-1.18-3.92,12.46,12.46,0,0,1,1-3.65,30.14,30.14,0,0,1,2.35-4.49L33.18,3.09a12.88,12.88,0,0,1-3.54,1.68,9.54,9.54,0,0,1-2.58.51,9.44,9.44,0,0,1-4.61-1.37A17.76,17.76,0,0,1,20,2.5,24,24,0,0,1,17.2,4.07,9.45,9.45,0,0,1,13,5.28a11.28,11.28,0,0,1-2.89-.63A11.42,11.42,0,0,1,6.79,3.08L2.86,7.6a43.4,43.4,0,0,1,2.46,4.6,8.78,8.78,0,0,1,.95,3.51,16,16,0,0,1-1.12,3.75c-.53,1.26-1,2.55-1.57,3.81a14.92,14.92,0,0,0-1,3.88A5.91,5.91,0,0,0,2.5,28a4,4,0,0,0,2.36,3.6,8.84,8.84,0,0,0,2.91,1S17,33.79,20,37.5c2.89-3.58,10.61-3.85,13.9-5.16Q37.5,31,37.5,28a13.84,13.84,0,0,0-.73-3.75A40.42,40.42,0,0,0,34.91,19.7Z" style="fill:#18a8e2"/><path d="M20,38.5l-.49-.61C16.7,34.43,7.77,33.18,7.68,33.17a9.4,9.4,0,0,1-3.14-1A4.61,4.61,0,0,1,1.87,28a6.4,6.4,0,0,1,.06-.95,15.4,15.4,0,0,1,1-4c.3-.72.59-1.43.89-2.14l.69-1.67a14.67,14.67,0,0,0,1.07-3.5,8.27,8.27,0,0,0-.89-3.24A42.38,42.38,0,0,0,2.32,7.94l-.25-.4L6.69,2.23l.47.34a10.89,10.89,0,0,0,3.1,1.48,10.87,10.87,0,0,0,2.7.6,8.9,8.9,0,0,0,4-1.14A30.32,30.32,0,0,0,19.58,2l.36-.29.39.25a17.31,17.31,0,0,0,2.37,1.36,8.93,8.93,0,0,0,4.37,1.32,8.67,8.67,0,0,0,2.39-.49,12.27,12.27,0,0,0,3.36-1.59l.47-.33,4.56,5.33L37.61,8a30.08,30.08,0,0,0-2.3,4.38,11.48,11.48,0,0,0-.94,3.42,10.23,10.23,0,0,0,1.12,3.65A41.33,41.33,0,0,1,37.37,24,14.43,14.43,0,0,1,38.13,28c0,2.33-1.35,4-4,5A28.48,28.48,0,0,1,29.92,34c-3.38.71-7.58,1.6-9.43,3.88ZM3.64,7.66a45.92,45.92,0,0,1,2.25,4.27,9.32,9.32,0,0,1,1,3.77c0,.4-.13,1.22-1.16,4L5,21.36l-.89,2.14a14.2,14.2,0,0,0-1,3.71,5.39,5.39,0,0,0,0,.78,3.4,3.4,0,0,0,2,3,8.15,8.15,0,0,0,2.71.88c.35,0,8.63,1.2,12.12,4.64,2.27-2.23,6.34-3.08,9.66-3.78a27.68,27.68,0,0,0,4-1c2.16-.79,3.2-2,3.2-3.8a13.43,13.43,0,0,0-.71-3.57A40.28,40.28,0,0,0,34.34,20h0a11.12,11.12,0,0,1-1.23-4.18,12.81,12.81,0,0,1,1-3.87,29,29,0,0,1,2.17-4.2L33.06,3.92a14.06,14.06,0,0,1-3.23,1.45,10.1,10.1,0,0,1-2.77.54,10,10,0,0,1-4.92-1.45A15.42,15.42,0,0,1,20,3.26c-.46.29-1.25.72-2.5,1.38A10,10,0,0,1,13,5.91a11.71,11.71,0,0,1-3.08-.65,12.84,12.84,0,0,1-3-1.34Z" style="fill:#18a8e2"/><path d="M37.18,18.64a8.3,8.3,0,0,1-.94-2.86A10.86,10.86,0,0,1,37.06,13a27,27,0,0,1,2.15-4.08A2.5,2.5,0,0,0,39,6L35.08,1.46A2.5,2.5,0,0,0,31.75,1a10.5,10.5,0,0,1-2.86,1.34,7.09,7.09,0,0,1-1.83.4,7,7,0,0,1-3.38-1l-.27-.13A15.25,15.25,0,0,1,21.34.4a2.5,2.5,0,0,0-2.91.14c-.12.09-.6.38-2.38,1.31A7.08,7.08,0,0,1,13,2.78a9.15,9.15,0,0,1-2.15-.51,9,9,0,0,1-2.54-1.2,2.5,2.5,0,0,0-3.36.38L1,6a2.5,2.5,0,0,0-.23,3A41,41,0,0,1,3,13.26a6.59,6.59,0,0,1,.71,2.38,20,20,0,0,1-.95,2.9l-.67,1.61c-.29.72-.59,1.43-.89,2.14A17.4,17.4,0,0,0,.07,26.82,8.42,8.42,0,0,0,0,28a6.4,6.4,0,0,0,3.64,5.78A11.09,11.09,0,0,0,7.34,35h.09c3.19.44,8.9,1.92,10.62,4.05a2.5,2.5,0,0,0,3.89,0c1.43-1.77,5.27-2.58,8.37-3.23a29.92,29.92,0,0,0,4.48-1.17C39.32,33,40,29.74,40,28a15.91,15.91,0,0,0-.84-4.49A42.23,42.23,0,0,0,37.18,18.64ZM33.9,32.34c-3.29,1.31-11,1.58-13.9,5.16-3-3.71-12.23-5-12.23-5a8.84,8.84,0,0,1-2.91-1A4,4,0,0,1,2.5,28a5.91,5.91,0,0,1,.05-.85,14.92,14.92,0,0,1,1-3.88c.53-1.26,1-2.54,1.57-3.81a16,16,0,0,0,1.12-3.75,8.78,8.78,0,0,0-.95-3.51A43.4,43.4,0,0,0,2.86,7.6L6.79,3.08a11.42,11.42,0,0,0,3.28,1.57A11.28,11.28,0,0,0,13,5.28a9.45,9.45,0,0,0,4.24-1.2A24,24,0,0,0,20,2.5a17.76,17.76,0,0,0,2.47,1.41,9.44,9.44,0,0,0,4.61,1.37,9.54,9.54,0,0,0,2.58-.51,12.88,12.88,0,0,0,3.54-1.68l3.89,4.55a30.14,30.14,0,0,0-2.35,4.49,12.46,12.46,0,0,0-1,3.65,10.67,10.67,0,0,0,1.18,3.92,40.42,40.42,0,0,1,1.85,4.5A13.84,13.84,0,0,1,37.5,28Q37.5,31,33.9,32.34Z" style="fill:#1173be"/><rect x="11.92" y="23.35" width="16.16" height="1.15" style="fill:#f4da7a"/><rect x="11.29" y="22.72" width="17.42" height="2.42" style="fill:#f4da7a"/><path d="M20,27.39a2.81,2.81,0,0,0,2.61-2.31H17.37A2.81,2.81,0,0,0,20,27.39Z" style="fill:#f4da7a"/><path d="M20,28a3.45,3.45,0,0,1-3.23-2.8l-.17-.77h6.8l-.17.77A3.45,3.45,0,0,1,20,28Zm-1.7-2.31a1.89,1.89,0,0,0,3.39,0Z" style="fill:#f4da7a"/><path d="M25.19,19.34V17.06a5.26,5.26,0,0,0-4-5.08A1.29,1.29,0,0,0,20,11.23a1.26,1.26,0,0,0-1.24.72,5.28,5.28,0,0,0-3.94,5.11v2.28c0,1.19-1.26,2.39-2.31,3.43h15C26.45,21.74,25.19,20.53,25.19,19.34Z" style="fill:#f4da7a"/><path d="M29,23.41H11l1.18-1.16c.91-.9,2-2,2-2.91V17.06a5.92,5.92,0,0,1,4.15-5.65A1.94,1.94,0,0,1,20,10.6a2,2,0,0,1,1.66.84,5.91,5.91,0,0,1,4.17,5.62v2.28c0,.9,1.14,2,2,2.91ZM14,22.15H26a4.43,4.43,0,0,1-1.43-2.8V17.06a4.62,4.62,0,0,0-3.48-4.46l-.31-.07-.12-.29a.69.69,0,0,0-.66-.37.68.68,0,0,0-.66.33l-.12.3-.31.07a4.63,4.63,0,0,0-3.46,4.5v2.28A4.43,4.43,0,0,1,14,22.15Z" style="fill:#f4da7a"/><path d="M28.91,22.55l-.67-.68c-.75-.74-1.89-1.86-1.89-2.54V17.06A6.45,6.45,0,0,0,22,11a2.63,2.63,0,0,0-4,0,6.46,6.46,0,0,0-4.36,6.09v2.29c0,.68-1.14,1.8-1.89,2.54l-.67.68a1.15,1.15,0,0,0-.32.75s0,0,0,.06v1.15a1.15,1.15,0,0,0,1.15,1.15h4.41A3.94,3.94,0,0,0,20,28.55a3.94,3.94,0,0,0,3.66-2.89h4.43a1.15,1.15,0,0,0,1.15-1.15V23.36s0,0,0-.06A1.15,1.15,0,0,0,28.91,22.55ZM14.81,19.34V17.06A5.28,5.28,0,0,1,18.75,12,1.26,1.26,0,0,1,20,11.23a1.29,1.29,0,0,1,1.24.75,5.26,5.26,0,0,1,4,5.08v2.28c0,1.19,1.26,2.39,2.31,3.43h-15C13.55,21.74,14.81,20.53,14.81,19.34ZM20,27.39a2.81,2.81,0,0,1-2.62-2.31h5.23A2.81,2.81,0,0,1,20,27.39Zm8.09-2.89H11.92V23.35H28.08Z" style="fill:#f3b82f"/></g></g></svg>