<svg xmlns="http://www.w3.org/2000/svg" viewBox="0 0 40 32.72"><title>Asset 340</title><g id="Layer_2" data-name="Layer 2"><g id="Layer_1-2" data-name="Layer 1"><path d="M37.86,22.57,39,8.6a1.1,1.1,0,0,0-.56-1.09h-.11c-4.45-1.82-9-1.43-13.47-1.08s-8.52.76-12.52-.86a1.07,1.07,0,0,0-1.41.59.85.85,0,0,0-.08.35L10.38,12,9.07,11.6c-.31-.1-.62-.21-.91-.33a1.1,1.1,0,0,0-1,.08,1,1,0,0,0-.51.84l-1.09,14a1.09,1.09,0,0,0,.69,1.08c4.45,1.83,9,1.44,13.46,1.09s8.5-.73,12.48.89a1.08,1.08,0,0,0,1.43-.55,1,1,0,0,0,.1-.45l.41-5.53,1.33.45.9.32a1,1,0,0,0,1-.07,1.08,1.08,0,0,0,.51-.85Z" style="fill:#add7a3"/><path d="M27.57,11.05c-4.55.3-9.13,1.09-13.59,0l-.07,1c4.45,1.08,9,.28,13.6,0Z" style="fill:#78c283"/><path d="M39,22.66l.16-2.17L40,8.69a2.18,2.18,0,0,0-1.08-2.07l-.22-.11c-4.75-1.93-9.46-1.52-14-1.08-4.23.36-8.24.69-11.94-.83A2.17,2.17,0,0,0,9.88,5.74a2.2,2.2,0,0,0-.17.67l-.3,4.13-.84-.3a2.24,2.24,0,0,0-3,1.84l-.41,5.53-.58,8.45a2.17,2.17,0,0,0,1.09,2.06l.21.11c4.71,1.92,9.42,1.51,14,1.09,4.23-.36,8.24-.7,11.94.82A2.17,2.17,0,0,0,34.59,29a2.13,2.13,0,0,0,.16-.66L35,25.22l.07-1.08c.28.08.56.19.84.3a2.17,2.17,0,0,0,2.83-1.19,2.11,2.11,0,0,0,.15-.66ZM6.7,26.23q.54-7,1.09-14a16,16,0,0,0,2.52.78l-.53,7.44-.07.79.73.29c4.46,1.83,9,1.44,13.48,1.09a36.16,36.16,0,0,1,9.18,0l-.45,5.59C24.22,24.73,15.2,29.67,6.7,26.23Zm4.16-5.68q.53-7,1.09-14c8.43,3.44,17.5-1.5,26,1.94q-.52,7-1.09,14C28.34,19.05,19.28,24,10.86,20.55Z" style="fill:#414042"/><path d="M33.38,13.66,33,13.47c-.65-.35-.91-.57-.89-.89s.27-.6,1-.53a3.23,3.23,0,0,1,1.14.36l.41.25.39-1.17-.31-.23a3.62,3.62,0,0,0-1.2-.4l.07-1c-.35,0-.71-.09-1.09-.11,0,.35-.05.7-.07,1.09a2.07,2.07,0,0,0-2.05,1.83,1.8,1.8,0,0,0,1.18,1.78,5.51,5.51,0,0,0,.65.31l.39.18c.51.29.73.56.7.89s-.47.62-1.09.57a4.37,4.37,0,0,1-1.69-.51l-.1-.06L30,17.14l.08.06a5.31,5.31,0,0,0,1.75.49,5.14,5.14,0,0,1-.08,1.08l1.09.11c0-.37.05-.75.08-1.08,1.27-.07,2-.72,2.08-1.7a2.31,2.31,0,0,0-1.51-2.28A1.07,1.07,0,0,0,33.38,13.66Z" style="fill:#78c283"/><path d="M13.6,16.57l-.07.95a25.41,25.41,0,0,0,7.28.48l.06-1A25.73,25.73,0,0,1,13.6,16.57Z" style="fill:#78c283"/><path d="M13.79,13.81a4.53,4.53,0,0,1-.07,1c4.46,1.08,9,.28,13.59,0l.07-1C22.8,14.11,18.24,14.85,13.79,13.81Z" style="fill:#78c283"/><polygon points="6.44 11.75 5.24 30.16 10.65 30.52 11.86 12.1 16.19 12.38 9.82 2.17 2.17 11.46 6.44 11.75" style="fill:#f89400"/><path d="M8.15.79l-7.6,9.3A2.17,2.17,0,0,0,0,11.32a2.12,2.12,0,0,0,.18,1A2.16,2.16,0,0,0,2,13.63l2.11.14L3.05,30.05a2.18,2.18,0,0,0,2,2.31l5.43.35a2.18,2.18,0,0,0,2.32-2L13.9,14.41l2.17.14a2.23,2.23,0,0,0,2-3.36L11.66,1a2.16,2.16,0,0,0-3-.69A2.29,2.29,0,0,0,8.15.79Zm8,11.59-4.34-.28L10.64,30.55,5.22,30.2l1.2-18.46-4.25-.27,7.61-9.3Z" style="fill:#414042"/></g></g></svg>