<svg xmlns="http://www.w3.org/2000/svg" viewBox="0 0 40 40"><title>Asset 209</title><g id="Layer_2" data-name="Layer 2"><g id="Layer_1-2" data-name="Layer 1"><path d="M20,27.48a2.63,2.63,0,0,0,2.48-1.76h-5A2.63,2.63,0,0,0,20,27.48Z" style="fill:#ffb300"/><path d="M25.28,17.8a5.28,5.28,0,0,0-10.56,0c0,2.64,0,3.79-1.76,5.28v1.76H27V23.08C25.28,21.59,25.28,20.44,25.28,17.8Z" style="fill:#ffb300"/><path d="M31.1,13.91l3.36-4.2L30.29,5.54,26.09,8.9a12.57,12.57,0,0,0-2.54-1L23,2.5H17l-.59,5.35a12.5,12.5,0,0,0-2.54,1L9.72,5.54,5.54,9.71l3.36,4.2a12.6,12.6,0,0,0-1.05,2.54L2.5,17V23l5.35.59a12.6,12.6,0,0,0,1,2.54l-3.36,4.2,4.18,4.18,4.2-3.36a12.64,12.64,0,0,0,2.54,1.05L17,37.5H23l.59-5.35a12.56,12.56,0,0,0,2.54-1l4.2,3.36,4.18-4.18-3.36-4.2a12.56,12.56,0,0,0,1-2.54L37.5,23V17l-5.35-.59A12.56,12.56,0,0,0,31.1,13.91ZM28.8,24.84A1.76,1.76,0,0,1,27,26.6H24a4.38,4.38,0,0,1-8,0H13a1.76,1.76,0,0,1-1.76-1.76V23.08a1.76,1.76,0,0,1,.62-1.34c1.09-.93,1.14-1.3,1.14-3.93A7,7,0,0,1,27,17.8c0,2.64,0,3,1.14,3.93a1.76,1.76,0,0,1,.62,1.34Z" style="fill:#d7d7d7"/><path d="M27,17.8A7,7,0,0,0,13,17.8c0,2.64,0,3-1.14,3.93a1.76,1.76,0,0,0-.62,1.34v1.76A1.76,1.76,0,0,0,13,26.6h3a4.38,4.38,0,0,0,8,0h3a1.76,1.76,0,0,0,1.76-1.76V23.08a1.76,1.76,0,0,0-.62-1.34C27.08,20.81,27,20.44,27,17.8Zm-7,9.68a2.63,2.63,0,0,1-2.48-1.76h5A2.63,2.63,0,0,1,20,27.48Zm7-2.64H13V23.08c1.76-1.49,1.76-2.64,1.76-5.28a5.28,5.28,0,0,1,10.56,0c0,2.64,0,3.79,1.76,5.28Z" style="fill:#d99300"/><path d="M37.78,14.56l-3.66-.41,2.3-2.88a2.5,2.5,0,0,0-.18-3.33L32.05,3.77a2.5,2.5,0,0,0-3.33-.18l-2.88,2.3-.41-3.66A2.5,2.5,0,0,0,23,0H17a2.5,2.5,0,0,0-2.48,2.22l-.41,3.66-2.88-2.3a2.5,2.5,0,0,0-3.33.18L3.77,7.95a2.5,2.5,0,0,0-.18,3.33l2.3,2.88-3.66.41A2.5,2.5,0,0,0,0,17V23a2.5,2.5,0,0,0,2.22,2.48l3.66.41-2.3,2.88a2.5,2.5,0,0,0,.18,3.33l4.18,4.18a2.5,2.5,0,0,0,3.33.18l2.88-2.3.41,3.66A2.5,2.5,0,0,0,17,40H23a2.5,2.5,0,0,0,2.48-2.22l.41-3.66,2.88,2.3a2.5,2.5,0,0,0,3.33-.18l4.18-4.18a2.5,2.5,0,0,0,.18-3.33l-2.3-2.88,3.66-.41A2.5,2.5,0,0,0,40,23V17A2.5,2.5,0,0,0,37.78,14.56ZM37.5,23l-5.35.59a12.56,12.56,0,0,1-1,2.54l3.36,4.2-4.18,4.18-4.2-3.36a12.56,12.56,0,0,1-2.54,1L23,37.5H17l-.59-5.35a12.64,12.64,0,0,1-2.54-1.05l-4.2,3.36L5.54,30.28l3.36-4.2a12.6,12.6,0,0,1-1-2.54L2.5,23V17l5.35-.59A12.6,12.6,0,0,1,8.9,13.91L5.54,9.71,9.72,5.54l4.2,3.36a12.5,12.5,0,0,1,2.54-1L17,2.5H23l.59,5.35a12.57,12.57,0,0,1,2.54,1l4.2-3.36,4.18,4.18-3.36,4.2a12.56,12.56,0,0,1,1.05,2.54L37.5,17Z" style="fill:#918f90"/></g></g></svg>