<svg xmlns="http://www.w3.org/2000/svg" viewBox="0 0 20 20"><title>Asset 315</title><g id="Layer_2" data-name="Layer 2"><g id="Layer_1-2" data-name="Layer 1"><path d="M10,0a10,10,0,1,0,0,20A10,10,0,0,0,17.07,2.93,9.93,9.93,0,0,0,10,0Z" style="fill:#ffe500"/><path d="M11.19,11.85a1.1,1.1,0,0,0-.27-.78,2.69,2.69,0,0,0-1-.55,5.53,5.53,0,0,1-2-1,2.16,2.16,0,0,1-.64-1.67A2.16,2.16,0,0,1,8,6.19a2.79,2.79,0,0,1,1.73-.74V4.2h.93V5.47a2.59,2.59,0,0,1,1.65.82,2.45,2.45,0,0,1,.58,1.76v0H11.19a1.45,1.45,0,0,0-.29-1,1,1,0,0,0-.81-.34,1,1,0,0,0-.8.29,1.16,1.16,0,0,0-.24.77,1,1,0,0,0,.26.72,3.22,3.22,0,0,0,1,.58,5.22,5.22,0,0,1,1.94,1,2.21,2.21,0,0,1,.65,1.68,2.16,2.16,0,0,1-.64,1.64,2.89,2.89,0,0,1-1.74.72v1.15H9.59V14.19a3.16,3.16,0,0,1-1.85-.75,2.37,2.37,0,0,1-.7-1.9l0,0H8.73a1.34,1.34,0,0,0,.36,1.06,1.37,1.37,0,0,0,.95.32,1.2,1.2,0,0,0,.87-.28A1,1,0,0,0,11.19,11.85Z"/></g></g></svg>