<svg xmlns="http://www.w3.org/2000/svg" viewBox="0 0 39.99 40"><title>Asset 202</title><g id="Layer_2" data-name="Layer 2"><g id="Layer_1-2" data-name="Layer 1"><path d="M20,0A20,20,0,0,0,5.85,34.14,20,20,0,1,0,34.13,5.86,19.87,19.87,0,0,0,20,0Z" style="fill:#78c283"/><path d="M29.3,15.23a1.22,1.22,0,0,0-.41-.84L27,12.72a1.16,1.16,0,0,0-.67-.28,1.17,1.17,0,0,0-1,.39L17.9,21.1l-3.68-2.83a1.16,1.16,0,0,0-.65-.27h-.22a1.18,1.18,0,0,0-.8.44l-1.6,2a1.23,1.23,0,0,0,.17,1.71l6.46,5.15a1.16,1.16,0,0,0,.65.27,1.17,1.17,0,0,0,1-.4l9.79-11A1.23,1.23,0,0,0,29.3,15.23Z" style="fill:#fff"/></g></g></svg>