<svg xmlns="http://www.w3.org/2000/svg" viewBox="0 0 40 40"><title>Asset 266</title><g id="Layer_2" data-name="Layer 2"><g id="Layer_1-2" data-name="Layer 1"><path d="M33,18,11,40H0V29L22,7ZM12,34.22,5.78,28l-2.4,2.4v2.82H6.76v3.38H9.58ZM22.81,11.54a.63.63,0,0,0-.45.19L8.05,26a.62.62,0,0,0-.19.45.55.55,0,0,0,.58.58.62.62,0,0,0,.45-.18L23.21,12.57a.62.62,0,0,0,.19-.45A.55.55,0,0,0,22.81,11.54ZM39,12l-4.38,4.38-11-11L28,1a3.32,3.32,0,0,1,2.38-1,3.43,3.43,0,0,1,2.4,1L39,7.18a3.52,3.52,0,0,1,1,2.4A3.4,3.4,0,0,1,39,12Z" style="fill:#008b5d"/></g></g></svg>