<svg xmlns="http://www.w3.org/2000/svg" viewBox="0 0 40 40"><title>Asset 319</title><g id="Layer_2" data-name="Layer 2"><g id="Layer_1-2" data-name="Layer 1"><path d="M20,25C10.77,25,3.22,30.5,2.5,37.5h35C36.79,30.5,29.24,25,20,25Z" style="fill:#f89400"/><path d="M27.5,15V10a7.5,7.5,0,0,0-15,0v5c0,5.18,6.25,7.5,7.5,7.5S27.5,20.18,27.5,15Z" style="fill:#f89400"/><path d="M25.22,23A9.62,9.62,0,0,0,30,15V10a10,10,0,0,0-20,0v5a9.62,9.62,0,0,0,4.78,8c-8,1.7-14,7.24-14.77,14.2a2.54,2.54,0,0,0,.63,1.94A2.53,2.53,0,0,0,2.5,40h35A2.49,2.49,0,0,0,40,37.25C39.28,30.28,33.26,24.73,25.22,23ZM12.5,15V10a7.5,7.5,0,0,1,15,0v5c0,5.18-6.25,7.5-7.5,7.5S12.5,20.18,12.5,15ZM2.5,37.5C3.22,30.5,10.77,25,20,25s16.79,5.5,17.5,12.5Z" style="fill:#894700"/></g></g></svg>