<svg xmlns="http://www.w3.org/2000/svg" viewBox="0 0 40 40"><title>Asset 323</title><g id="Layer_2" data-name="Layer 2"><g id="Layer_1-2" data-name="Layer 1"><path d="M13.75,37.5h12.5V2.5H13.75ZM16.25,5H20V8.75H16.25Zm0,7.5H20v3.75H16.25Zm0,7.5H20v3.75H16.25Z" style="fill:#b6bdbf"/><path d="M33.75,8.75h-2.5v5H27.5V37.5h10V13.75H33.75Zm0,18.75H30V23.75h3.75Zm0-7.5H30V16.25h3.75Z" style="fill:#b6bdbf"/><path d="M11.25,2.5H8.75V8.75H6.25V2.5H3.75V8.75H2.5V37.5h10V8.75H11.25ZM8.75,31.25H5V27.5H8.75ZM8.75,15H5V11.25H8.75Z" style="fill:#b6bdbf"/><rect x="5" y="11.25" width="3.75" height="3.75" style="fill:#f4da7a"/><rect x="16.25" y="5" width="3.75" height="3.75" style="fill:#f4da7a"/><rect x="5" y="27.5" width="3.75" height="3.75" style="fill:#f4da7a"/><rect x="16.25" y="12.5" width="3.75" height="3.75" style="fill:#f4da7a"/><rect x="30" y="16.25" width="3.75" height="3.75" style="fill:#f4da7a"/><rect x="16.25" y="20" width="3.75" height="3.75" style="fill:#f4da7a"/><path d="M37.5,11.25H36.25V8.75a2.5,2.5,0,0,0-2.5-2.5h-2.5a2.5,2.5,0,0,0-2.5,2.5V2.5A2.5,2.5,0,0,0,26.25,0H3.75a2.5,2.5,0,0,0-2.5,2.5V6.58A2.5,2.5,0,0,0,0,8.75V37.5A2.5,2.5,0,0,0,2.5,40h35A2.5,2.5,0,0,0,40,37.5V13.75A2.5,2.5,0,0,0,37.5,11.25ZM12.5,37.5H2.5V8.75H3.75V2.5h2.5V8.75h2.5V2.5h2.5V8.75H12.5Zm13.75,0H13.75V2.5h12.5Zm11.25,0h-10V13.75h3.75v-5h2.5v5H37.5Z" style="fill:#918f90"/><rect x="30" y="23.75" width="3.75" height="3.75" style="fill:#f4da7a"/></g></g></svg>