<svg xmlns="http://www.w3.org/2000/svg" viewBox="0 0 40 40"><title>Asset 322</title><g id="Layer_2" data-name="Layer 2"><g id="Layer_1-2" data-name="Layer 1"><path d="M27.5,2.5H2.5v35h35v-25h-10ZM18.75,33.75H6.25V32.5h12.5Zm0-3.75H6.25V28.75h12.5Zm15,3.75H21.25V32.5h12.5Zm0-3.75H21.25V28.75h12.5Zm0-3.75H21.25V25h12.5Zm0-5V22.5H21.25V21.25Z" style="fill:#cdf3ff"/><path d="M37.85,37.85H2.15V2.15h25.7v10h10Zm-35-.7h34.3V12.85h-10v-10H2.85Zm31.25-3H20.9v-2H34.1Zm-12.5-.7H33.4v-.55H21.6Zm-2.5.7H5.9v-2H19.1ZM6.6,33.4H18.4v-.55H6.6Zm27.5-3H20.9v-2H34.1Zm-12.5-.7H33.4V29.1H21.6Zm-2.5.7H5.9v-2H19.1Zm-12.5-.7H18.4V29.1H6.6Zm27.5-3H20.9v-2H34.1Zm-12.5-.7H33.4v-.55H21.6Zm12.5-3H20.9v-2H34.1Zm-12.5-.7H33.4V21.6H21.6Z" style="fill:#cdf3ff"/><polygon points="28.75 11.25 37.5 11.25 28.75 2.5 28.75 11.25" style="fill:#9becff"/><rect x="21.25" y="21.25" width="12.5" height="1.25" style="fill:#6ec6db"/><rect x="21.25" y="25" width="12.5" height="1.25" style="fill:#6ec6db"/><rect x="6.24" y="21.25" width="12.5" height="1.25" style="fill:#6ec6db"/><rect x="6.24" y="25" width="12.5" height="1.25" style="fill:#6ec6db"/><rect x="21.25" y="28.75" width="12.5" height="1.25" style="fill:#6ec6db"/><rect x="6.25" y="28.75" width="12.5" height="1.25" style="fill:#6ec6db"/><rect x="21.25" y="32.5" width="12.5" height="1.25" style="fill:#6ec6db"/><rect x="6.25" y="32.5" width="12.5" height="1.25" style="fill:#6ec6db"/><path d="M29.85.73A2.46,2.46,0,0,0,28.08,0H2.5A2.5,2.5,0,0,0,0,2.5v35A2.5,2.5,0,0,0,2.5,40h35A2.5,2.5,0,0,0,40,37.5V12a2.85,2.85,0,0,0-.73-1.8ZM37.5,37.5H2.5V2.5h25v10h10ZM28.75,11.25V2.5l8.75,8.75Z" style="fill:#6ec6db"/><path d="M15.73,13.24a3.57,3.57,0,0,0,1.79-3V8.38a3.74,3.74,0,1,0-7.47,0v1.86a3.59,3.59,0,0,0,1.79,3c-3,.63-5.24,2.7-5.51,5.3a.93.93,0,0,0,.93,1H20.32a.93.93,0,0,0,.69-.31.94.94,0,0,0,.23-.72C21,15.94,18.73,13.87,15.73,13.24Zm-4.74-3V8.38a2.8,2.8,0,1,1,5.59,0v1.86c0,1.93-2.33,2.8-2.79,2.8S11,12.17,11,10.24Zm-3.73,8.4C7.52,16,10.34,14,13.79,14s6.26,2.06,6.53,4.67Z" style="fill:#6ec6db"/></g></g></svg>