<svg viewBox="0 0 123.62 26.71" xmlns="http://www.w3.org/2000/svg"><g fill="#1e9f85"><path d="m55.43 10.84h4.73v4.73h-4.73z"/><path d="m4.78 3.62h-4.78l.03 2.32v18.13l-.03 2.32h4.78l-.03-2.32v-18.13z"/><path d="m18.8 12.5c0-2.23-1.09-3.41-2.9-3.41-1.44 0-2.62.74-4.21 2.23v-1.94h-4.11v2.33 12.36 2.32h4.3v-2.32-10.32a3.63 3.63 0 0 1 1.85-.83c.86 0 .86.73.86 1.46v9.69 2.32h4.3v-2.32z"/><path d="m26.57 4.76h-3.92l-.25 4.62h-2.14v3.51h2.07v9.11c0 3.12 1.53 4.55 4.65 4.55a19.22 19.22 0 0 0 2.23-.16v-3.63c-.35 0-.79.07-1.08.07-1 0-1.56-.39-1.56-1.69v-8.25h2.64v-3.51h-2.64z"/><path d="m35 11.87h-.16v-2.49h-4v2.29 12.4 2.32h4.3v-2.32-7.36c0-2.07 1-2.93 2.77-2.93a8.12 8.12 0 0 1 1.18.09v-4.71a2.94 2.94 0 0 0 -.54-.07c-1.18 0-2.46 1.06-3.55 2.78z"/><path d="m69.6 5.94v-2.33h-4.74v2.33.59l-7.43-6.53-9.8 9.35a7.57 7.57 0 0 0 -2.2-.29 5.67 5.67 0 0 0 -3.92 1.24c-1.47 1.28-1.72 3.32-1.72 6.44v2.26c0 3.16.29 5.13 1.72 6.44a5.48 5.48 0 0 0 3.92 1.24 5.39 5.39 0 0 0 3.92-1.24c1.43-1.31 1.75-3.28 1.75-6.44v-2.26a12.38 12.38 0 0 0 -.71-5l7.09-7.3 7.41 6.78v12.85 2.32h10.29v-4.07h-5.58zm-22.74 14.06c0 1.75 0 3.12-1.43 3.12s-1.43-1.41-1.43-3.12v-4.18c0-1.76 0-3.13 1.4-3.13s1.43 1.37 1.43 3.13z"/><path d="m82.06 9.06a5.59 5.59 0 0 0 -3.92 1.24c-1.43 1.31-1.72 3.32-1.72 6.44v2.26c0 3.13.29 5.13 1.72 6.47a5.54 5.54 0 0 0 3.92 1.21 5.59 5.59 0 0 0 3.94-1.18 6.42 6.42 0 0 0 1.75-4.9v-.1h-4.16v.1c0 1 0 2.48-1.47 2.48s-1.46-1.47-1.46-3.08v-1.16h7.07v-2.1c0-3.12-.32-5.13-1.75-6.44a5.5 5.5 0 0 0 -3.92-1.24zm1.43 6.88h-2.83v-.44c0-1.6 0-2.93 1.4-2.93s1.43 1.33 1.43 2.93z"/><path d="m101.08 12.5c0-2.23-1.08-3.41-2.9-3.41-1.43 0-2.61.74-4.2 2.23v-1.94h-4.11v2.33 12.36 2.32h4.3v-2.32-10.32a3.67 3.67 0 0 1 1.83-.83c.86 0 .86.73.86 1.46v9.69 2.32h4.3v-2.32z"/><path d="m114.68 3.61h-4.3v2.33 4.65a5.27 5.27 0 0 0 -3.47-1.5c-3.63 0-3.63 4-3.63 6.82v4.27c0 2.74 0 6.5 3.47 6.5 1.34 0 2.3-.57 3.67-1.69h.15v1.4h4.08v-2.32-18.13zm-4.27 18.9a3 3 0 0 1 -1.53.54c-1.33 0-1.33-1.47-1.33-2.45v-5.17c0-.92 0-2.7 1.46-2.7a3.32 3.32 0 0 1 1.4.41z"/><path d="m117.24 4.07h.99v2.72h.68v-2.72h1v-.59h-2.67z"/><path d="m122.89 3.48-.89 2.26-.89-2.26h-.76v3.31h.68v-1.83l.73 1.83h.47l.71-1.76v1.76h.68v-3.31z"/></g></svg>