<svg xmlns="http://www.w3.org/2000/svg" viewBox="0 0 40 37.65"><defs><style>.cls-1{fill:#18a8e2;}.cls-2{fill:#1173be;}.cls-3{fill:#fff;}</style></defs><title>Asset 113</title><g id="Layer_2" data-name="Layer 2"><g id="Layer_1-2" data-name="Layer 1"><path class="cls-1" d="M22.33,2.35a4.39,4.39,0,0,0-3.11,1.29L3.64,19.21a4.4,4.4,0,0,0,0,6.23l21.8-21.8A4.39,4.39,0,0,0,22.33,2.35Z"/><path class="cls-2" d="M27.1,2a6.76,6.76,0,0,0-9.55,0L2,17.55A6.76,6.76,0,0,0,2,27.1l8.56,8.56a6.76,6.76,0,0,0,9.55,0L35.67,20.1a6.76,6.76,0,0,0,0-9.56ZM3.64,19.21,19.21,3.64a4.41,4.41,0,0,1,6.23,0L3.64,25.44A4.4,4.4,0,0,1,3.64,19.21ZM34,18.43,18.43,34a4.41,4.41,0,0,1-6.23,0L6,27.78,27.78,6,34,12.21A4.4,4.4,0,0,1,34,18.43Z"/><path class="cls-1" d="M34,12.21,27.78,6,6,27.78,12.21,34a4.41,4.41,0,0,0,6.23,0L34,18.43A4.4,4.4,0,0,0,34,12.21Z"/><path class="cls-2" d="M40,16.38a6.76,6.76,0,0,0-6.76-6.76h-22a6.76,6.76,0,0,0-6.76,6.76c0,.62,0,12.11,0,12.11a6.76,6.76,0,0,0,6.76,6.76h22A6.76,6.76,0,0,0,40,28.49S40,17,40,16.38Z"/><path class="cls-1" d="M37.65,16.38a4.41,4.41,0,0,0-4.4-4.4h-22a4.4,4.4,0,0,0-4.4,4.4h0v9.91h0v2.2a4.41,4.41,0,0,0,4.4,4.4h22a4.4,4.4,0,0,0,4.4-4.4v-2.2h0Z"/><circle class="cls-3" cx="12.24" cy="17.05" r="2.6"/><path class="cls-3" d="M33,23.55H10.38a.59.59,0,0,1,0-1.18H33a.59.59,0,1,1,0,1.18Z"/><path class="cls-3" d="M19.56,26.21H10.38a.59.59,0,0,1,0-1.18h9.18a.59.59,0,1,1,0,1.18Z"/><rect class="cls-3" x="28.46" y="27.29" width="5.8" height="2.98"/></g></g></svg>