<svg xmlns="http://www.w3.org/2000/svg" viewBox="0 0 40 40"><title>Asset 336</title><g id="Layer_2" data-name="Layer 2"><g id="Layer_1-2" data-name="Layer 1"><path d="M2.5,37.5h25v-10h10V2.5H2.5ZM21.25,6.25h12.5V7.5H21.25Zm0,3.75h12.5v1.25H21.25Zm0,3.75h12.5V15H21.25Zm0,3.75h12.5v1.25H21.25Zm0,3.75h12.5V22.5H21.25Zm-9.56-6.34c-2.3-.76-4-1.83-4-3.92a3.65,3.65,0,0,1,3.48-3.81h.07V5h2.5V7a8.07,8.07,0,0,1,3.06.72l-.67,2.42A6.82,6.82,0,0,0,13,9.41c-1.4,0-1.86.62-1.86,1.25s.68,1.13,2.57,1.84c2.5.9,3.66,2.09,3.66,4a3.89,3.89,0,0,1-3.75,3.93v2H11.25V20.6a9.51,9.51,0,0,1-3.56-.91l.69-2.5a7.54,7.54,0,0,0,3.57.93c1.25,0,2.09-.48,2.09-1.32S13.3,15.45,11.69,14.91ZM6.25,27.5h12.5v1.25H6.25Zm0,3.75h12.5V32.5H6.25Z" style="fill:#cdf3ff;stroke:#cdf3ff;stroke-miterlimit:10;stroke-width:0.9375000000000002px"/><polygon points="28.75 37.5 37.5 28.75 28.75 28.75 28.75 37.5" style="fill:#9becff;stroke:#9becff;stroke-miterlimit:10;stroke-width:1.2500000000000002px"/><rect x="20.82" y="6.25" width="12.5" height="1.25" style="fill:#6ec6db"/><rect x="20.82" y="10" width="12.5" height="1.25" style="fill:#6ec6db"/><rect x="20.82" y="13.75" width="12.5" height="1.25" style="fill:#6ec6db"/><rect x="5.82" y="27.5" width="12.5" height="1.25" style="fill:#6ec6db"/><rect x="20.82" y="17.5" width="12.5" height="1.25" style="fill:#6ec6db"/><rect x="20.82" y="21.25" width="12.5" height="1.25" style="fill:#6ec6db"/><rect x="5.82" y="31.25" width="12.5" height="1.25" style="fill:#6ec6db"/><path d="M37.5,0H2.5A2.5,2.5,0,0,0,0,2.5v35A2.5,2.5,0,0,0,2.5,40H28.09a2.49,2.49,0,0,0,1.76-.74l9.41-9.45A2.85,2.85,0,0,0,40,28V2.5A2.5,2.5,0,0,0,37.5,0ZM28.75,37.5V28.75H37.5Zm8.75-10h-10v10H2.5V2.5h35Z" style="fill:#6ec6db"/><path d="M11.46,18.11a7.62,7.62,0,0,1-3.58-.94l-.68,2.5a9.43,9.43,0,0,0,3.56.92V22.5h2.5V20.43A3.91,3.91,0,0,0,17,16.49c0-1.95-1.11-3.14-3.66-4-1.91-.66-2.66-1.14-2.66-1.83s.46-1.24,1.86-1.24a6.57,6.57,0,0,1,3.1.75l.68-2.43A8.15,8.15,0,0,0,13.26,7V5h-2.5V7.17a3.65,3.65,0,0,0-3.48,3.75c0,2.09,1.68,3.17,4,3.93,1.62.54,2.29,1.06,2.29,1.88S12.7,18.11,11.46,18.11Z" style="fill:#6ec6db"/></g></g></svg>