<svg xmlns="http://www.w3.org/2000/svg" viewBox="0 0 40.94 40.94"><title>Asset 338</title><g id="Layer_2" data-name="Layer 2"><g id="Layer_1-2" data-name="Layer 1"><path d="M40.47,38a2.5,2.5,0,0,1-2.5,2.5H3A2.5,2.5,0,0,1,.47,38V3A2.5,2.5,0,0,1,3,.47H38A2.5,2.5,0,0,1,40.47,3Z" style="fill:#cdf3ff;stroke:#cdf3ff;stroke-miterlimit:10;stroke-width:0.9374999441206491px"/><rect x="17.26" y="20.43" width="2.54" height="5.58" style="fill:#f3b82f"/><rect x="13.44" y="23.61" width="2.54" height="2.4" style="fill:#ff8668"/><rect x="9.69" y="23.61" width="2.54" height="2.4" style="fill:#ff8668"/><rect x="24.88" y="14.71" width="2.54" height="11.3" style="fill:#3f6078"/><rect x="28.69" y="11.53" width="2.54" height="14.47" style="fill:#78c283"/><rect x="21.07" y="17.24" width="2.54" height="8.75" style="fill:#f4da7a"/><path d="M38,.47H3A2.5,2.5,0,0,0,.47,3h0V38A2.5,2.5,0,0,0,3,40.47H38a2.5,2.5,0,0,0,2.5-2.5V3A2.5,2.5,0,0,0,38,.47ZM38,38H3V3H38Z" style="fill:#6ec6db"/><rect x="6.72" y="29.22" width="27.5" height="1.25" style="fill:#6ec6db"/><rect x="6.72" y="32.97" width="27.5" height="1.25" style="fill:#6ec6db"/><path d="M13,17.41a5.32,5.32,0,0,1-2.5-.65L10,18.48a6.45,6.45,0,0,0,2.5.63v1.31h1.72V19a2.69,2.69,0,0,0,2.5-2.71c0-1.34-.77-2.15-2.5-2.77-1.25-.45-1.78-.78-1.78-1.25s.31-.84,1.25-.84a4.64,4.64,0,0,1,2.13.51l.47-1.66a5.47,5.47,0,0,0-2.11-.49V8.38H12.49v1.5a2.51,2.51,0,0,0-2.35,2.61c0,1.43,1.17,2.17,2.74,2.7,1.11.37,1.58.73,1.58,1.25s-.59.92-1.44.92" style="fill:#918f90"/></g></g></svg>