<svg xmlns="http://www.w3.org/2000/svg" viewBox="0 0 40 40"><defs><style>.cls-1{fill:#add7a3;}.cls-2{fill:#78c081;}.cls-3{fill:#918f90;}.cls-4{fill:#fff;}.cls-5{fill:#414042;}</style></defs><title>Asset 18</title><g id="Layer_2" data-name="Layer 2"><g id="Layer_1-2" data-name="Layer 1"><path class="cls-1" d="M20,6.25a13.75,13.75,0,1,0,9.73,4A13.66,13.66,0,0,0,20,6.25Zm0,16.87a3.12,3.12,0,0,1-2.86-1.87H10a1.25,1.25,0,0,1,0-2.5h7.14a3.13,3.13,0,0,1,1.61-1.61V8.75a1.25,1.25,0,0,1,2.5,0v8.39a3.12,3.12,0,0,1-1.25,6Z"/><path class="cls-2" d="M20,2.5A17.5,17.5,0,1,0,37.5,20,17.5,17.5,0,0,0,20,2.5ZM30.61,30.61A15,15,0,1,1,35,20,14.91,14.91,0,0,1,30.61,30.61Z"/><path class="cls-3" d="M20,0A20,20,0,1,0,40,20,20,20,0,0,0,20,0Zm0,37.5A17.5,17.5,0,1,1,37.5,20,17.5,17.5,0,0,1,20,37.5Z"/><path class="cls-4" d="M20,5A15,15,0,1,0,30.61,9.39,14.91,14.91,0,0,0,20,5Zm9.73,24.72a13.75,13.75,0,1,1,4-9.72A13.67,13.67,0,0,1,29.72,29.72Z"/><path class="cls-5" d="M21.25,17.14V8.75a1.25,1.25,0,0,0-2.5,0v8.39a3.13,3.13,0,0,0-1.61,1.61H10a1.25,1.25,0,0,0,0,2.5h7.14a3.12,3.12,0,1,0,4.11-4.11Z"/></g></g></svg>