<svg xmlns="http://www.w3.org/2000/svg" viewBox="0 0 40 40"><title>Asset 207</title><g id="Layer_2" data-name="Layer 2"><g id="Layer_1-2" data-name="Layer 1"><path d="M34.91,19.7a10.67,10.67,0,0,1-1.18-3.92,12.46,12.46,0,0,1,1-3.65,30.14,30.14,0,0,1,2.35-4.49L33.18,3.09a12.88,12.88,0,0,1-3.54,1.68,9.54,9.54,0,0,1-2.58.51,9.44,9.44,0,0,1-4.61-1.37A17.76,17.76,0,0,1,20,2.5,24,24,0,0,1,17.2,4.07,9.45,9.45,0,0,1,13,5.28a11.28,11.28,0,0,1-2.89-.63A11.42,11.42,0,0,1,6.79,3.08L2.86,7.6a43.4,43.4,0,0,1,2.46,4.6,8.78,8.78,0,0,1,.95,3.51,16,16,0,0,1-1.12,3.75c-.53,1.26-1,2.55-1.57,3.81a14.92,14.92,0,0,0-1,3.88A5.91,5.91,0,0,0,2.5,28a4,4,0,0,0,2.36,3.6,8.84,8.84,0,0,0,2.91,1S17,33.79,20,37.5c2.89-3.58,10.61-3.85,13.9-5.16Q37.5,31,37.5,28a13.84,13.84,0,0,0-.73-3.75A40.42,40.42,0,0,0,34.91,19.7Z" style="fill:#f4da7a"/><path d="M20,38l-.27-.33c-2.88-3.56-11.92-4.82-12-4.83a9.09,9.09,0,0,1-3-1A4.35,4.35,0,0,1,2.16,28a6.16,6.16,0,0,1,.06-.9,15.18,15.18,0,0,1,1-4L4.15,21l.67-1.63a14.83,14.83,0,0,0,1.1-3.62A8.42,8.42,0,0,0,5,12.35,42.83,42.83,0,0,0,2.57,7.78l-.14-.22,4.3-4.95L7,2.8a11.14,11.14,0,0,0,3.18,1.52A11.08,11.08,0,0,0,13,4.94,9.17,9.17,0,0,0,17,3.77a27.36,27.36,0,0,0,2.72-1.54L20,2.08l.21.14a17.28,17.28,0,0,0,2.41,1.38,9.14,9.14,0,0,0,4.48,1.34,9,9,0,0,0,2.48-.5A12.6,12.6,0,0,0,33,2.81l.25-.18,4.26,5-.13.21A30.06,30.06,0,0,0,35,12.25a12.33,12.33,0,0,0-1,3.53,10.45,10.45,0,0,0,1.14,3.77,41,41,0,0,1,1.87,4.54A14.15,14.15,0,0,1,37.84,28c0,2.2-1.29,3.78-3.83,4.71a28.32,28.32,0,0,1-4.16,1.07c-3.42.72-7.68,1.62-9.59,4ZM3.28,7.63a44.38,44.38,0,0,1,2.34,4.42,9.06,9.06,0,0,1,1,3.65c0,.35-.12,1.13-1.14,3.87l-.68,1.64c-.3.73-.6,1.46-.9,2.18a14.53,14.53,0,0,0-1,3.79,5.6,5.6,0,0,0,0,.81A3.67,3.67,0,0,0,5,31.3a8.42,8.42,0,0,0,2.8.91c.36,0,8.9,1.24,12.17,4.77,2.16-2.32,6.34-3.2,9.72-3.91a28,28,0,0,0,4.05-1c2.28-.84,3.39-2.17,3.39-4.07a13.72,13.72,0,0,0-.72-3.65,40.24,40.24,0,0,0-1.83-4.46h0a10.88,10.88,0,0,1-1.21-4.06,12.61,12.61,0,0,1,1-3.77,29.59,29.59,0,0,1,2.25-4.33L33.12,3.54a13.59,13.59,0,0,1-3.37,1.55,9.85,9.85,0,0,1-2.68.53,9.71,9.71,0,0,1-4.78-1.41A16.18,16.18,0,0,1,20,2.91c-.42.28-1.24.74-2.64,1.46A9.71,9.71,0,0,1,13,5.62,11.44,11.44,0,0,1,10,5,12.26,12.26,0,0,1,6.84,3.54Z" style="fill:#f4da7a"/><path d="M37.18,18.64a8.3,8.3,0,0,1-.94-2.86A10.86,10.86,0,0,1,37.06,13a27,27,0,0,1,2.15-4.08A2.5,2.5,0,0,0,39,6L35.08,1.46A2.5,2.5,0,0,0,31.75,1a10.5,10.5,0,0,1-2.86,1.34,7.09,7.09,0,0,1-1.83.4,7,7,0,0,1-3.38-1l-.27-.13A15.25,15.25,0,0,1,21.34.4a2.5,2.5,0,0,0-2.91.14c-.12.09-.6.38-2.38,1.31A7.08,7.08,0,0,1,13,2.78a9.15,9.15,0,0,1-2.15-.51,9,9,0,0,1-2.54-1.2,2.5,2.5,0,0,0-3.36.38L1,6a2.5,2.5,0,0,0-.23,3A41,41,0,0,1,3,13.26a6.59,6.59,0,0,1,.71,2.38,20,20,0,0,1-.95,2.9l-.67,1.61c-.29.72-.59,1.43-.89,2.14A17.4,17.4,0,0,0,.07,26.82,8.42,8.42,0,0,0,0,28a6.4,6.4,0,0,0,3.64,5.78A11.09,11.09,0,0,0,7.34,35h.09c3.19.44,8.9,1.92,10.62,4.05a2.5,2.5,0,0,0,3.89,0c1.43-1.77,5.27-2.58,8.37-3.23a29.92,29.92,0,0,0,4.48-1.17C39.32,33,40,29.74,40,28a15.91,15.91,0,0,0-.84-4.49A42.23,42.23,0,0,0,37.18,18.64ZM33.9,32.34c-3.29,1.31-11,1.58-13.9,5.16-3-3.71-12.23-5-12.23-5a8.84,8.84,0,0,1-2.91-1A4,4,0,0,1,2.5,28a5.91,5.91,0,0,1,.05-.85,14.92,14.92,0,0,1,1-3.88c.53-1.26,1-2.54,1.57-3.81a16,16,0,0,0,1.12-3.75,8.78,8.78,0,0,0-.95-3.51A43.4,43.4,0,0,0,2.86,7.6L6.79,3.08a11.42,11.42,0,0,0,3.28,1.57A11.28,11.28,0,0,0,13,5.28a9.45,9.45,0,0,0,4.24-1.2A24,24,0,0,0,20,2.5a17.76,17.76,0,0,0,2.47,1.41,9.44,9.44,0,0,0,4.61,1.37,9.54,9.54,0,0,0,2.58-.51,12.88,12.88,0,0,0,3.54-1.68l3.89,4.55a30.14,30.14,0,0,0-2.35,4.49,12.46,12.46,0,0,0-1,3.65,10.67,10.67,0,0,0,1.18,3.92,40.42,40.42,0,0,1,1.85,4.5A13.84,13.84,0,0,1,37.5,28Q37.5,31,33.9,32.34Z" style="fill:#f3b82f"/></g></g></svg>