<svg id="Layer_1" data-name="Layer 1" xmlns="http://www.w3.org/2000/svg" viewBox="0 0 110 110"><defs><style>.cls-1{fill:#afd7a6;}.cls-2{fill:#7ac286;}</style></defs><title>badge_check</title><path class="cls-1" d="M96,54.17c-2.15-4.74-3.23-8.32-3.23-10.77q0-2.91,2.71-10A82.31,82.31,0,0,1,102,21L91.24,8.5a35.36,35.36,0,0,1-9.73,4.61,26.27,26.27,0,0,1-7.09,1.41,26,26,0,0,1-12.68-3.76A49.68,49.68,0,0,1,55,6.88a67.51,67.51,0,0,1-7.66,4.33c-4.27,2.18-8.15,3.31-11.66,3.31a31.31,31.31,0,0,1-8-1.72,31.7,31.7,0,0,1-9-4.33L7.86,20.9a120.7,120.7,0,0,1,6.75,12.66c1.73,3.8,2.6,7,2.6,9.64,0,1.41-1,4.85-3.08,10.31C12.68,57,11.25,60.51,9.8,64A40.91,40.91,0,0,0,7,74.64,16.49,16.49,0,0,0,6.88,77c0,4.17,2.14,7.46,6.48,9.89a24.32,24.32,0,0,0,8,2.62S46.74,92.93,55,103.12c8-9.83,29.17-10.58,38.23-14.18q9.9-3.63,9.9-12.08a38,38,0,0,0-2-10.32A113.32,113.32,0,0,0,96,54.17Z"/><path class="cls-2" d="M102.24,51.25c-2.46-5.42-2.59-7.5-2.59-7.85,0-.17.11-1.9,2.27-7.61a74.4,74.4,0,0,1,5.91-11.21,6.87,6.87,0,0,0-.66-8L96.46,4a6.85,6.85,0,0,0-9.15-1.17,28.9,28.9,0,0,1-7.85,3.69,19.56,19.56,0,0,1-5,1.09,19.18,19.18,0,0,1-9.31-2.88c-.24-.13-.49-.25-.74-.36a41.15,41.15,0,0,1-5.68-3.3A6.93,6.93,0,0,0,55,0a6.86,6.86,0,0,0-4.29,1.5c-.34.24-1.64,1-6.54,3.61a19.55,19.55,0,0,1-8.49,2.53c-.14,0-1.51,0-5.92-1.41a24.78,24.78,0,0,1-7-3.31,6.87,6.87,0,0,0-9.25,1L2.67,16.39A6.86,6.86,0,0,0,2,24.55,112.65,112.65,0,0,1,8.39,36.48,18.12,18.12,0,0,1,10.34,43a56,56,0,0,1-2.61,8L5.9,55.41q-1.22,3-2.44,5.9A47.82,47.82,0,0,0,.2,73.76,22.17,22.17,0,0,0,0,77c0,4.69,1.74,11.26,10,15.89a30.34,30.34,0,0,0,10.18,3.39l.25,0c8.78,1.2,24.48,5.29,29.22,11.14a6.87,6.87,0,0,0,10.68,0c3.94-4.86,14.51-7.08,23-8.88a83.2,83.2,0,0,0,12.33-3.21C108.14,90.75,110,81.8,110,76.86a43.77,43.77,0,0,0-2.32-12.33A115.1,115.1,0,0,0,102.24,51.25Zm-9,37.69C84.16,92.54,63,93.29,55,103.12,46.74,92.93,21.35,89.5,21.35,89.5a24.32,24.32,0,0,1-8-2.62C9,84.45,6.87,81.16,6.87,77A16.38,16.38,0,0,1,7,74.64,40.91,40.91,0,0,1,9.8,64c1.45-3.46,2.88-7,4.33-10.46,2-5.46,3.08-8.9,3.08-10.31,0-2.65-.87-5.84-2.6-9.64A120.7,120.7,0,0,0,7.86,20.9L18.66,8.47a31.7,31.7,0,0,0,9,4.33,31.31,31.31,0,0,0,8,1.72c3.51,0,7.39-1.13,11.66-3.31A65.26,65.26,0,0,0,55,6.87a48.92,48.92,0,0,0,6.78,3.89,26,26,0,0,0,12.68,3.76,26.27,26.27,0,0,0,7.09-1.41A35.36,35.36,0,0,0,91.24,8.5L102,21a82.31,82.31,0,0,0-6.46,12.34q-2.7,7.13-2.71,10c0,2.45,1.08,6,3.23,10.77a113.32,113.32,0,0,1,5.1,12.37,38,38,0,0,1,2,10.32C103.12,82.5,99.82,86.51,93.22,88.94Z"/><path class="cls-2" d="M82.39,39.94a3.41,3.41,0,0,0-1.14-2.34L75.94,33a3.16,3.16,0,0,0-1.86-.79,3.25,3.25,0,0,0-2.68,1.08L50.83,56.18l-10.2-7.84a3.3,3.3,0,0,0-1.81-.74,4,4,0,0,0-.6,0A3.27,3.27,0,0,0,36,48.83l-4.42,5.56a3.4,3.4,0,0,0,.46,4.72L49.93,73.36a3.21,3.21,0,0,0,1.8.74,3.25,3.25,0,0,0,2.7-1.1L81.54,42.41A3.43,3.43,0,0,0,82.39,39.94Z"/></svg>