<svg xmlns="http://www.w3.org/2000/svg" viewBox="0 0 40 40"><title>Asset 349</title><g id="Layer_2" data-name="Layer 2"><g id="Layer_1-2" data-name="Layer 1"><path d="M38.54,22.71,34,18.17A13.11,13.11,0,1,0,9.14,10H2.5A2.5,2.5,0,0,0,0,12.5v25A2.5,2.5,0,0,0,2.5,40H25a2.5,2.5,0,0,0,2.5-2.5V25.82l4,4a5,5,0,0,0,7.08-7.08ZM25,37.5H2.5v-25H8.78c0,.21,0,.41,0,.62A14.35,14.35,0,0,0,12.5,22.5c5,5,11.63,3.57,12.5,3.35ZM36.77,28a2.51,2.51,0,0,1-3.54,0L27.4,22.19a10.65,10.65,0,1,1,3.54-3.54l5.83,5.83A2.52,2.52,0,0,1,36.77,28Z" style="fill:#ccc"/><path d="M21.72,5a8.13,8.13,0,1,0,8.12,8.13A8.13,8.13,0,0,0,21.72,5Zm0,15a6.88,6.88,0,1,1,6.87-6.87A6.88,6.88,0,0,1,21.72,20Z" style="fill:#ccc"/></g></g></svg>