<svg xmlns="http://www.w3.org/2000/svg" viewBox="0 0 40 40"><title>Asset 350</title><g id="Layer_2" data-name="Layer 2"><g id="Layer_1-2" data-name="Layer 1"><path id="books" d="M32.5,2.5l5,35H35l-5-35h2.5m-5,0,5,35H30l-5-35h2.5m-3.75,0V5h-10V2.5h10M12.5,2.5V5H2.5V2.5h10M23.75,6.25v27.5h-10V6.25h10M16.25,10h5V8.75h-5V10m0,2.5h5V11.25h-5V12.5M12.5,6.25v27.5H2.5V6.25h10M5,10h5V8.75H5V10m0,2.5h5V11.25H5V12.5M23.75,35v2.5h-10V35h10M12.5,35v2.5H2.5V35h10m20-35H2.5A2.5,2.5,0,0,0,0,2.5v35A2.5,2.5,0,0,0,2.5,40H23.75a2.5,2.5,0,0,0,2.5-2.5V28.93l1.27,8.92A2.51,2.51,0,0,0,30,40h7.5A2.49,2.49,0,0,0,40,37.15l-5-35A2.49,2.49,0,0,0,32.5,0Z" style="fill:#ccc"/></g></g></svg>