<svg xmlns="http://www.w3.org/2000/svg" viewBox="0 0 40 40"><title>Asset 353</title><g id="Layer_2" data-name="Layer 2"><g id="Layer_1-2" data-name="Layer 1"><rect x="21.25" y="21.25" width="12.5" height="1.25" style="fill:#ccc"/><rect x="21.25" y="25" width="12.5" height="1.25" style="fill:#ccc"/><rect x="6.24" y="21.25" width="12.5" height="1.25" style="fill:#ccc"/><rect x="6.24" y="25" width="12.5" height="1.25" style="fill:#ccc"/><rect x="21.25" y="28.75" width="12.5" height="1.25" style="fill:#ccc"/><rect x="6.25" y="28.75" width="12.5" height="1.25" style="fill:#ccc"/><rect x="21.25" y="32.5" width="12.5" height="1.25" style="fill:#ccc"/><rect x="6.25" y="32.5" width="12.5" height="1.25" style="fill:#ccc"/><path d="M39.27,10.19,29.85.73A2.46,2.46,0,0,0,28.08,0H2.5A2.5,2.5,0,0,0,0,2.5v35A2.5,2.5,0,0,0,2.5,40h35A2.5,2.5,0,0,0,40,37.5V12A2.85,2.85,0,0,0,39.27,10.19ZM37.5,37.5H2.5V2.5h25v10h10ZM28.75,11.25V2.5l8.75,8.75Z" style="fill:#ccc"/><path d="M7,17.75H18a.78.78,0,0,0,.78-.78V10.34A.78.78,0,0,0,18,9.56H16.4V9.19a3.91,3.91,0,1,0-7.81,0v.37H7a.78.78,0,0,0-.78.78V17A.78.78,0,0,0,7,17.75ZM9.37,9.19a3.13,3.13,0,1,1,6.25,0V10H14.45V9.19a2,2,0,0,0-3.91,0V10H9.37ZM7,10.34H18V17H7Z" style="fill:#ccc"/><path d="M13.47,12.87a1.09,1.09,0,0,0-1.1-1.09,1.12,1.12,0,0,0-1.11,1.12,1.17,1.17,0,0,0,.55,1l-.4,1.9h1.91l-.4-1.89A1.27,1.27,0,0,0,13.47,12.87Z" style="fill:#ccc"/></g></g></svg>