<svg xmlns="http://www.w3.org/2000/svg" viewBox="0 0 40 39.99"><title>Asset 352</title><g id="Layer_2" data-name="Layer 2"><g id="Layer_1-2" data-name="Layer 1"><path d="M40,26.24a5,5,0,0,0-1.86-3.87A4.9,4.9,0,0,0,38.75,20V18.74a5,5,0,0,0-5-5H21.27A23.56,23.56,0,0,0,22.5,6.26,6.28,6.28,0,0,0,16.29,0h0c-1.83,0-4.86.78-5,5.94a18.91,18.91,0,0,1-4,7.05C2.37,15.57,0,20.11,0,26.86A13.14,13.14,0,0,0,13.12,40H31.25a5,5,0,0,0,5-5V33.74a5.13,5.13,0,0,0-.19-1.36A5,5,0,0,0,40,27.49Zm-20,7.5a2.5,2.5,0,0,1,2.5-2.5h8.75a2.5,2.5,0,0,1,2.5,2.5V35a2.5,2.5,0,0,1-2.5,2.5H22.5A2.5,2.5,0,0,1,20,35Zm1.25-15V20a3.73,3.73,0,0,0,2.46,3.5,3.74,3.74,0,0,0-1.21,2.75v1.25a3.74,3.74,0,0,0,1,2.5h-1a3.75,3.75,0,0,0-3.75,3.75V35a3.74,3.74,0,0,0,1,2.5H13.12A10.63,10.63,0,0,1,2.5,26.86C2.5,22.1,3.75,17.49,8.76,15a20.62,20.62,0,0,0,5-8.81c0-2,.45-3.71,2.5-3.71h0A3.74,3.74,0,0,1,20,6.24a21.37,21.37,0,0,1-2.5,10h4.73A3.7,3.7,0,0,0,21.25,18.74Zm15,1.25a2.5,2.5,0,0,1-2.5,2.5H25A2.5,2.5,0,0,1,22.5,20V18.74a2.5,2.5,0,0,1,2.5-2.5h8.75a2.5,2.5,0,0,1,2.5,2.5Zm1.25,7.5A2.5,2.5,0,0,1,35,30H26.25a2.5,2.5,0,0,1-2.5-2.5V26.24a2.5,2.5,0,0,1,2.5-2.5H35a2.5,2.5,0,0,1,2.5,2.5Z" style="fill:#ccc"/></g></g></svg>