<svg xmlns="http://www.w3.org/2000/svg" viewBox="0 0 40 40"><title>Asset 351</title><g id="Layer_2" data-name="Layer 2"><g id="Layer_1-2" data-name="Layer 1"><polygon points="23.21 29.34 23.21 28.75 23.21 26.93 20.47 26.93 20.47 29.34 21.25 29.34 23.21 29.34" style="fill:#ccc"/><polygon points="23.21 22.5 23.21 21.25 23.21 15.66 20.47 15.66 20.47 24.62 23.21 24.62 23.21 22.5" style="fill:#ccc"/><path d="M39.27,10.19,29.85.73A2.46,2.46,0,0,0,28.08,0H2.5A2.5,2.5,0,0,0,0,2.5v35A2.5,2.5,0,0,0,2.5,40h35A2.5,2.5,0,0,0,40,37.5V12A2.85,2.85,0,0,0,39.27,10.19ZM9.85,17a12.58,12.58,0,0,0-.75,2.11H6.53v-.7L7.66,17Zm-2-.43V10.5H9.5v6.11ZM7,10.08V9.5l5.5-3.24L18,9.5v.4c-.16,0-.32.12-.48.18Zm9.46.42c-.34.15-.67.31-1,.49V10.5Zm-1.84,0v1a13,13,0,0,0-1.7,1.34V10.5ZM10.34,16V10.5H12v3.21A13.06,13.06,0,0,0,10.37,16l0,0Zm1.85,4,.06-.26c.06-.2.13-.39.2-.59A9.89,9.89,0,0,1,13.5,17l.21-.31.09-.12c.15-.2.3-.4.47-.59s.2-.23.31-.34a9.16,9.16,0,0,1,.84-.81,9.76,9.76,0,0,1,1.7-1.15l.3-.15.29-.14.25-.12a10,10,0,0,1,13.75,7.94,10.36,10.36,0,0,1,.08,1.25,9.85,9.85,0,0,1-.33,2.5,8.7,8.7,0,0,1-.41,1.25,9.79,9.79,0,0,1-1.47,2.5A10.21,10.21,0,0,1,28.37,30a9.91,9.91,0,0,1-13.09,0,10.21,10.21,0,0,1-1.21-1.25,9.79,9.79,0,0,1-1.47-2.5A8.7,8.7,0,0,1,12.19,25a9.63,9.63,0,0,1,0-5ZM37.5,37.5H2.5V2.5h25v8.13a12.78,12.78,0,0,0-8.69-.94V9.5a.84.84,0,0,0-.42-.73l-5.5-3.24a.9.9,0,0,0-.86,0L6.53,8.77a.84.84,0,0,0-.42.73v.58a.85.85,0,0,0,.85.84v5.65L5.87,17.93a.82.82,0,0,0-.18.52v.7a.85.85,0,0,0,.84.85H8.89a13.14,13.14,0,0,0,0,5H6.25v1.25H9.2a13,13,0,0,0,1,2.5h-4V30H11a12.79,12.79,0,0,0,2.26,2.5h-7v1.25H15a13,13,0,0,0,13.65,0h5.1V32.5H30.38A12.79,12.79,0,0,0,32.64,30h1.11V28.75h-.33a13.14,13.14,0,0,0-3-16.25H37.5ZM28.75,11.25V2.5l8.75,8.75Z" style="fill:#ccc"/></g></g></svg>