<svg xmlns="http://www.w3.org/2000/svg" viewBox="0 0 40 40.01"><title>Asset 235</title><g id="Layer_2" data-name="Layer 2"><g id="Layer_1-2" data-name="Layer 1"><path d="M36.25,29.87V16.25a2.5,2.5,0,0,0,2.5-2.5v-1.7A2.5,2.5,0,0,0,37.52,9.9L21.27.34a2.5,2.5,0,0,0-2.53,0L2.48,9.9a2.5,2.5,0,0,0-1.23,2.16v1.7a2.5,2.5,0,0,0,2.5,2.5V29.87l-3.2,4A2.5,2.5,0,0,0,0,35.44v2.06A2.5,2.5,0,0,0,2.5,40h35a2.5,2.5,0,0,0,2.5-2.5V35.44a2.5,2.5,0,0,0-.55-1.56ZM3.75,12.06,20,2.5l16.25,9.56v1.7H3.75Zm30,2.95V30h-5V15Zm-7.5,0V30h-5V15Zm-7.5,0V30h-5V15Zm-7.5,0V30h-5V15ZM37.5,37.51H2.5V35.44l3.34-4.19H34.16l3.34,4.19Z" style="fill:#959595"/></g></g></svg>