<svg xmlns="http://www.w3.org/2000/svg" viewBox="0 0 39.99 40"><title>Asset 234</title><g id="Layer_2" data-name="Layer 2"><g id="Layer_1-2" data-name="Layer 1"><rect x="21.25" y="15" width="5" height="15" style="fill:#b6bdbf"/><rect x="13.75" y="15" width="5" height="15" style="fill:#b6bdbf"/><polygon points="36.24 12.05 20 2.5 3.75 12.05 3.75 13.75 36.24 13.75 36.24 12.05" style="fill:#b6bdbf"/><rect x="28.75" y="15" width="5" height="15" style="fill:#b6bdbf"/><rect x="6.25" y="15" width="5" height="15" style="fill:#b6bdbf"/><polygon points="5.84 31.25 2.5 35.44 2.5 37.5 37.49 37.5 37.49 35.44 34.15 31.25 5.84 31.25" style="fill:#b6bdbf"/><path d="M36.24,29.87V16.25a2.5,2.5,0,0,0,2.5-2.5v-1.7A2.5,2.5,0,0,0,37.51,9.9L21.26.34a2.5,2.5,0,0,0-2.53,0L2.48,9.9a2.5,2.5,0,0,0-1.23,2.16v1.7a2.5,2.5,0,0,0,2.5,2.5V29.86l-3.2,4A2.5,2.5,0,0,0,0,35.44V37.5A2.5,2.5,0,0,0,2.5,40h35A2.5,2.5,0,0,0,40,37.5V35.44a2.5,2.5,0,0,0-.55-1.56ZM3.75,12.05,20,2.5l16.25,9.55v1.7H3.75Zm30,2.95V30h-5V15Zm-7.5,0V30h-5V15Zm-7.5,0V30h-5V15Zm-7.5,0V30h-5V15ZM37.49,37.5H2.5V35.44l3.34-4.19H34.15l3.34,4.19Z" style="fill:#9ca3a4"/></g></g></svg>