<svg xmlns="http://www.w3.org/2000/svg" viewBox="0 0 40 40"><title>Asset 237</title><g id="Layer_2" data-name="Layer 2"><g id="Layer_1-2" data-name="Layer 1"><rect x="20.82" y="6.25" width="12.5" height="1.25" style="fill:#959595"/><rect x="20.82" y="10" width="12.5" height="1.25" style="fill:#959595"/><rect x="20.82" y="13.75" width="12.5" height="1.25" style="fill:#959595"/><rect x="5.82" y="27.5" width="12.5" height="1.25" style="fill:#959595"/><rect x="20.82" y="17.5" width="12.5" height="1.25" style="fill:#959595"/><rect x="20.82" y="21.25" width="12.5" height="1.25" style="fill:#959595"/><rect x="5.82" y="31.25" width="12.5" height="1.25" style="fill:#959595"/><path d="M37.5,0H2.5A2.5,2.5,0,0,0,0,2.5v35A2.5,2.5,0,0,0,2.5,40H28.08a2.49,2.49,0,0,0,1.77-.73l9.42-9.45A2.87,2.87,0,0,0,40,28V2.5A2.5,2.5,0,0,0,37.5,0ZM28.75,37.5V28.75H37.5Zm8.75-10h-10v10H2.5V2.5h35Z" style="fill:#959595"/><path d="M11.46,18.11a7.64,7.64,0,0,1-3.58-.94l-.69,2.51a9.44,9.44,0,0,0,3.57.92v1.9h2.5V20.43c2.5-.41,3.69-2,3.69-3.95s-1.12-3.13-3.67-4c-1.84-.67-2.59-1.14-2.59-1.82s.46-1.22,1.85-1.22a6.75,6.75,0,0,1,3.11.75l.68-2.42A8.12,8.12,0,0,0,13.26,7V5h-2.5V7.18C8.26,7.6,7.27,9.09,7.27,11c0,2.08,1.7,3.15,4,3.92,1.61.54,2.29,1.05,2.29,1.87S12.7,18.11,11.46,18.11Z" style="fill:#959595"/></g></g></svg>