<svg xmlns="http://www.w3.org/2000/svg" viewBox="0 0 40 37.65"><title>Asset 233</title><g id="Layer_2" data-name="Layer 2"><g id="Layer_1-2" data-name="Layer 1"><path d="M40,16.38a6.68,6.68,0,0,0-5-6.49L27.1,2a6.76,6.76,0,0,0-9.55,0L9.72,9.81a6.67,6.67,0,0,0-5.07,5.07L2,17.55A6.76,6.76,0,0,0,2,27.1l2.61,2.61A6.71,6.71,0,0,0,10,35.13l.54.54a6.76,6.76,0,0,0,9.55,0l.42-.42H33.24A6.76,6.76,0,0,0,40,28.49S40,17,40,16.38ZM37.65,19.1v7.19h0v2.2a4.4,4.4,0,0,1-4.4,4.4H11.08a4.42,4.42,0,0,1-4.25-4.25s0-.09,0-.14V16.38h0c0-.13,0-.25,0-.38a4.36,4.36,0,0,1,4-4c.13,0,.25,0,.38,0h22a5.67,5.67,0,0,1,1.58.3,4.3,4.3,0,0,1,2.77,3.58,4.34,4.34,0,0,1,.05.52V19.1ZM4.47,18.39v.83c0,1.36,0,3,0,4.56v.83l-.82.82a4.4,4.4,0,0,1,0-6.23Zm17.86-16a4.39,4.39,0,0,1,3.11,1.29l-6,6H13.23l6-6A4.39,4.39,0,0,1,22.33,2.35Zm9.1,7.27H24.13L27.78,6Z" style="fill:#959595"/><path d="M10.31,18.77a2.59,2.59,0,0,0,.35.33l.08.07a2.56,2.56,0,0,0,3.07-.07h0l0,0,.4-.4A2.57,2.57,0,0,0,14.84,17s0-.05,0-.08a2.58,2.58,0,0,0-.09-.59h0a3.08,3.08,0,0,0-.38-.82,2.66,2.66,0,0,0-.89-.78,2.59,2.59,0,0,0-3.73,1.6h0a2.58,2.58,0,0,0-.09.59s0,.05,0,.08a2.67,2.67,0,0,0,.67,1.72Z" style="fill:#959595"/><path d="M29.72,23.55H33a.59.59,0,0,0,.59-.59.62.62,0,0,0-.59-.59H10.38a.59.59,0,0,0-.59.59.64.64,0,0,0,.59.59H29.72Z" style="fill:#959595"/><path d="M19.56,25H10.38a.59.59,0,1,0,0,1.18h9.18a.59.59,0,1,0,0-1.18Z" style="fill:#959595"/><polygon points="28.46 27.29 28.46 27.3 28.46 30.28 34.27 30.28 34.27 27.29 28.47 27.29 28.46 27.29" style="fill:#959595"/></g></g></svg>