<svg xmlns="http://www.w3.org/2000/svg" viewBox="0 0 40 40"><title>Asset 236</title><g id="Layer_2" data-name="Layer 2"><g id="Layer_1-2" data-name="Layer 1"><path d="M2.07,37.5h25v-10h10V2.5h-35ZM20.82,6.25h12.5V7.5H20.82Zm0,3.75h12.5v1.25H20.82Zm0,3.75h12.5V15H20.82Zm0,3.75h12.5v1.25H20.82Zm0,3.75h12.5V22.5H20.82Zm-9.56-6.33c-2.29-.77-4-1.84-4-3.92,0-1.91,1-3.39,3.49-3.82V5h2.5V7a8.12,8.12,0,0,1,3.06.71l-.68,2.42a6.75,6.75,0,0,0-3.11-.75c-1.39,0-1.85.62-1.85,1.22s.75,1.16,2.59,1.82c2.56.9,3.67,2.08,3.67,4S15.76,20,13.26,20.43V22.5h-2.5V20.6a9.44,9.44,0,0,1-3.57-.92l.69-2.51a7.64,7.64,0,0,0,3.58.94c1.25,0,2.09-.49,2.09-1.33S12.87,15.46,11.26,14.92ZM5.82,27.5h12.5v1.25H5.82Zm0,3.75h12.5V32.5H5.82Z" style="fill:#cdf3ff"/><path d="M27.54,38H1.61V2H37.54V28h-10ZM2.54,37H26.61V27h10V3H2.54ZM18.79,33H5.36V30.78H18.79ZM6.29,32H17.86v-.31H6.29Zm12.5-2.81H5.36V27H18.79Zm-12.5-.94H17.86V28H6.29ZM33.79,23H20.36V20.78H33.79ZM21.29,22H32.86v-.31H21.29ZM13.73,23H10.3V21A9.75,9.75,0,0,1,7,20.09l-.32-.18.94-3.44.52.29a7.14,7.14,0,0,0,3.35.89c.75,0,1.62-.22,1.62-.86,0-.46-.33-.88-2-1.42h0c-2-.68-4.31-1.78-4.31-4.37a4.06,4.06,0,0,1,3.49-4.2V4.53h3.44V6.58a8.48,8.48,0,0,1,2.79.72l.36.17-.94,3.35-.5-.24a6.28,6.28,0,0,0-2.9-.7c-.42,0-1.38.07-1.38.75,0,.39.68.8,2.28,1.38,2.79,1,4,2.32,4,4.47a4.35,4.35,0,0,1-3.69,4.33ZM11.23,22H12.8V20l.39-.06c2.09-.34,3.3-1.61,3.3-3.48,0-1.71-1-2.75-3.36-3.59-1.88-.68-2.9-1.24-2.9-2.26,0-.82.61-1.69,2.32-1.69a7.1,7.1,0,0,1,2.8.57L15.77,8a7.67,7.67,0,0,0-2.52-.51l-.45,0v-2H11.23v2.1l-.39.07C8.78,8,7.74,9.12,7.74,11c0,1.57,1.1,2.61,3.67,3.48C13,15,14,15.59,14,16.79s-1,1.8-2.56,1.8a8,8,0,0,1-3.28-.74l-.43,1.58a9.54,9.54,0,0,0,3,.7l.44,0Zm22.56-2.81H20.36V17H33.79Zm-12.5-.94H32.86V18H21.29Zm12.5-2.81H20.36V13.28H33.79Zm-12.5-.94H32.86v-.31H21.29Zm12.5-2.81H20.36V9.53H33.79Zm-12.5-.94H32.86v-.31H21.29ZM33.79,8H20.36V5.78H33.79ZM21.29,7H32.86V6.72H21.29Z" style="fill:#cdf3ff"/><polygon points="28.32 37.5 37.07 28.75 28.32 28.75 28.32 37.5" style="fill:#9becff"/><rect x="20.82" y="6.25" width="12.5" height="1.25" style="fill:#6ec6db"/><rect x="20.82" y="10" width="12.5" height="1.25" style="fill:#6ec6db"/><rect x="20.82" y="13.75" width="12.5" height="1.25" style="fill:#6ec6db"/><rect x="5.82" y="27.5" width="12.5" height="1.25" style="fill:#6ec6db"/><rect x="20.82" y="17.5" width="12.5" height="1.25" style="fill:#6ec6db"/><rect x="20.82" y="21.25" width="12.5" height="1.25" style="fill:#6ec6db"/><rect x="5.82" y="31.25" width="12.5" height="1.25" style="fill:#6ec6db"/><path d="M37.5,0H2.5A2.5,2.5,0,0,0,0,2.5v35A2.5,2.5,0,0,0,2.5,40H28.08a2.49,2.49,0,0,0,1.77-.73l9.42-9.45A2.87,2.87,0,0,0,40,28V2.5A2.5,2.5,0,0,0,37.5,0ZM28.75,37.5V28.75H37.5Zm8.75-10h-10v10H2.5V2.5h35Z" style="fill:#6ec6db"/><path d="M11.46,18.11a7.64,7.64,0,0,1-3.58-.94l-.69,2.51a9.44,9.44,0,0,0,3.57.92v1.9h2.5V20.43c2.5-.41,3.69-2,3.69-3.95s-1.12-3.13-3.67-4c-1.84-.67-2.59-1.14-2.59-1.82s.46-1.22,1.85-1.22a6.75,6.75,0,0,1,3.11.75l.68-2.42A8.12,8.12,0,0,0,13.26,7V5h-2.5V7.18C8.26,7.6,7.27,9.09,7.27,11c0,2.08,1.7,3.15,4,3.92,1.61.54,2.29,1.05,2.29,1.87S12.7,18.11,11.46,18.11Z" style="fill:#78c283"/></g></g></svg>