<svg xmlns="http://www.w3.org/2000/svg" viewBox="0 0 40 37.65"><title>Asset 232</title><g id="Layer_2" data-name="Layer 2"><g id="Layer_1-2" data-name="Layer 1"><path d="M27.78,6,6,27.78,12.21,34a4.41,4.41,0,0,0,6.23,0L34,18.43a4.4,4.4,0,0,0,0-6.23Z" style="fill:#18a8e2"/><path d="M15.32,35.88a5,5,0,0,1-3.53-1.46L5.15,27.78,27.78,5.15l6.64,6.64a5,5,0,0,1,0,7.06L18.85,34.42A5,5,0,0,1,15.32,35.88ZM6.81,27.78l5.81,5.81a3.91,3.91,0,0,0,5.4,0L33.59,18a3.82,3.82,0,0,0,0-5.4L27.78,6.81Z" style="fill:#18a8e2"/><path d="M22.33,2.35a4.39,4.39,0,0,0-3.11,1.29L3.64,19.21a4.4,4.4,0,0,0,0,6.23l21.8-21.8A4.39,4.39,0,0,0,22.33,2.35Z" style="fill:#18a8e2"/><path d="M3.64,26.27l-.42-.42a5,5,0,0,1,0-7.06L18.8,3.23a5,5,0,0,1,7.06,0l.42.42ZM22.33,2.94a3.79,3.79,0,0,0-2.7,1.12L4.06,19.63a3.82,3.82,0,0,0-.38,4.95l20.9-20.9A3.79,3.79,0,0,0,22.33,2.94Z" style="fill:#18a8e2"/><path d="M27.1,2a6.76,6.76,0,0,0-9.55,0L2,17.55A6.76,6.76,0,0,0,2,27.1l8.56,8.56a6.76,6.76,0,0,0,9.55,0L35.67,20.1a6.76,6.76,0,0,0,0-9.56ZM3.64,19.21,19.21,3.64a4.41,4.41,0,0,1,6.23,0L3.64,25.44A4.4,4.4,0,0,1,3.64,19.21ZM34,18.43,18.43,34a4.41,4.41,0,0,1-6.23,0L6,27.78,27.78,6,34,12.21A4.4,4.4,0,0,1,34,18.43Z" style="fill:#1173be"/><path d="M40,16.38a6.76,6.76,0,0,0-6.76-6.76h-22a6.76,6.76,0,0,0-6.76,6.76c0,.62,0,12.11,0,12.11a6.76,6.76,0,0,0,6.76,6.76h22A6.76,6.76,0,0,0,40,28.49S40,17,40,16.38ZM6.82,17v-.59h0a4.4,4.4,0,0,1,4.4-4.4h22a4.41,4.41,0,0,1,4.4,4.4v9.91h0v2.2a4.4,4.4,0,0,1-4.4,4.4h-22a4.41,4.41,0,0,1-4.4-4.4v-2.2h0V17Z" style="fill:#1173be"/><path d="M36.36,13.27A4.39,4.39,0,0,0,33.24,12h-22a4.4,4.4,0,0,0-4.4,4.4h0v9.91h0v2.2a4.41,4.41,0,0,0,4.4,4.4h22a4.4,4.4,0,0,0,4.4-4.4v-2.2h0V16.38A4.39,4.39,0,0,0,36.36,13.27Zm-2.09,17h-5.8v-3h5.8ZM9.79,25.62a.59.59,0,0,1,.59-.59h9.18a.59.59,0,1,1,0,1.18H10.38A.59.59,0,0,1,9.79,25.62ZM33.55,23a.59.59,0,0,1-.59.59H10.38a.59.59,0,0,1,0-1.18H33A.59.59,0,0,1,33.55,23ZM9.65,17s0-.05,0-.08a2.58,2.58,0,0,1,.09-.59h0a2.59,2.59,0,0,1,5,0h0a2.58,2.58,0,0,1,.09.59s0,.05,0,.08a2.6,2.6,0,0,1-5.19,0Z" style="fill:#18a8e2"/><path d="M10.67,19.1a2.6,2.6,0,0,0,4.17-2s0-.05,0-.08a2.58,2.58,0,0,0-.09-.59h0a2.59,2.59,0,0,0-5,0h0a2.58,2.58,0,0,0-.09.59s0,.05,0,.08A2.58,2.58,0,0,0,10.67,19.1Z" style="fill:#fff"/><path d="M9.79,23a.59.59,0,0,0,.59.59H33a.59.59,0,0,0,0-1.18H10.38A.59.59,0,0,0,9.79,23Z" style="fill:#fff"/><path d="M19.56,25H10.38a.59.59,0,0,0,0,1.18h9.18a.59.59,0,1,0,0-1.18Z" style="fill:#fff"/><rect x="28.46" y="27.29" width="5.8" height="2.98" style="fill:#fff"/></g></g></svg>