<svg xmlns="http://www.w3.org/2000/svg" viewBox="0 0 38.48 40"><defs><style>.cls-1{fill:#d0d2d3;}.cls-2{fill:#1173be;}</style></defs><title>Asset 132</title><g id="Layer_2" data-name="Layer 2"><g id="Layer_1-2" data-name="Layer 1"><rect class="cls-1" x="2.4" y="30.38" width="7.21" height="7.21"/><path class="cls-1" d="M10.22,38.2H1.8V29.78h8.42ZM3,37H9V31H3Z"/><rect class="cls-1" x="15.63" y="30.38" width="7.21" height="7.21"/><path class="cls-1" d="M23.45,38.2H15V29.78h8.42ZM16.23,37h6V31h-6Z"/><path class="cls-1" d="M26.53,9.63a7.3,7.3,0,1,0-7.3,7.3A7.3,7.3,0,0,0,26.53,9.63ZM19.78,12.7v1H18.64v-.87A4.34,4.34,0,0,1,17,12.35l.32-1.15a3.51,3.51,0,0,0,1.64.43c.57,0,1-.23,1-.61s-.31-.61-1.05-.86C17.81,9.81,17,9.32,17,8.36A1.68,1.68,0,0,1,18.64,6.6v-1h1.15v.93a3.73,3.73,0,0,1,1.41.33L20.88,8a3.1,3.1,0,0,0-1.43-.35c-.64,0-.85.29-.85.56s.34.53,1.19.84c1.17.41,1.68,1,1.69,1.84h0A1.8,1.8,0,0,1,19.78,12.7Z"/><path class="cls-1" d="M19.24,17.52a7.9,7.9,0,1,1,7.9-7.9A7.91,7.91,0,0,1,19.24,17.52Zm0-14.59a6.69,6.69,0,1,0,6.69,6.69A6.7,6.7,0,0,0,19.24,2.93Zm1.15,11.32H18v-.94a4.59,4.59,0,0,1-1.33-.43l-.42-.23.64-2.34.67.37A2.94,2.94,0,0,0,19,11,.91.91,0,0,0,19.3,11c-.07,0-.22-.11-.63-.24-.62-.21-2.25-.75-2.25-2.37A2.21,2.21,0,0,1,18,6.13V5h2.35V6a4.24,4.24,0,0,1,1.06.32l.47.21-.65,2.3-.65-.31a3.17,3.17,0,0,0-1.2-.29c.13.06.31.14.58.23a2.6,2.6,0,0,1,2.08,2.41,2.33,2.33,0,0,1-1.7,2.3Zm-1.81-7a1,1,0,0,0-.95,1.13c0,.39.17.81,1.42,1.23.47.16,1.46.49,1.46,1.43a1.15,1.15,0,0,1-.76,1.07,1.2,1.2,0,0,0,1.13-1.21c0-.43-.1-.87-1.29-1.29C18.92,9.35,18,9,18,8.19A1.09,1.09,0,0,1,18.58,7.23Z"/><rect class="cls-1" x="28.86" y="30.38" width="7.21" height="7.21"/><path class="cls-1" d="M36.67,38.2H28.25V29.78h8.42ZM29.46,37h6V31h-6Z"/><path class="cls-2" d="M19.79,9c-.85-.31-1.19-.52-1.19-.84s.21-.56.85-.56A3.1,3.1,0,0,1,20.88,8l.31-1.11a3.73,3.73,0,0,0-1.41-.33V5.6H18.64v1A1.68,1.68,0,0,0,17,8.36c0,1,.78,1.45,1.83,1.8.74.25,1.05.48,1.05.86s-.39.61-1,.61a3.51,3.51,0,0,1-1.64-.43L17,12.35a4.34,4.34,0,0,0,1.64.42v.87h1.15v-1a1.8,1.8,0,0,0,1.7-1.81h0C21.48,10,21,9.44,19.79,9Z"/><path class="cls-2" d="M36.07,28h-2.4V20.76H20.44V19.17a9.63,9.63,0,1,0-2.4,0v1.59H4.81V28H2.4A2.41,2.41,0,0,0,0,30.38V37.6A2.41,2.41,0,0,0,2.4,40H9.62A2.4,2.4,0,0,0,12,37.6V30.38A2.4,2.4,0,0,0,9.62,28H7.21V23.17H18V28h-2.4a2.41,2.41,0,0,0-2.4,2.4V37.6a2.41,2.41,0,0,0,2.4,2.4h7.21a2.4,2.4,0,0,0,2.4-2.4V30.38a2.4,2.4,0,0,0-2.4-2.4h-2.4V23.17H31.26V28h-2.4a2.41,2.41,0,0,0-2.4,2.4V37.6a2.41,2.41,0,0,0,2.4,2.4h7.21a2.4,2.4,0,0,0,2.4-2.4V30.38A2.4,2.4,0,0,0,36.07,28ZM9.62,30.38V37.6H2.4V30.38Zm13.23,0V37.6H15.63V30.38ZM19.24,16.92a7.3,7.3,0,1,1,7.3-7.3A7.3,7.3,0,0,1,19.24,16.92ZM36.07,37.6H28.86V30.38h7.21Z"/></g></g></svg>