<!-- Generated by IcoMoon.io -->
<svg version="1.1" xmlns="http://www.w3.org/2000/svg" width="184" height="48" viewBox="0 0 184 48">
<title>transunion</title>
<path fill="#00a2d3" d="M28.039 32.961c-0.933-0.676-2.1-1.082-3.362-1.082-0.073 0-0.145 0.001-0.217 0.004 0.007-0 0.003-0-0-0-0.503 0-0.994 0.057-1.464 0.165-0.46 0.103-0.905 0.272-1.317 0.495-0.394 0.209-0.756 0.476-1.071 0.791-0.308 0.307-0.548 0.68-0.699 1.097-0.023-0.544-0.22-1.060-0.54-1.475-0.297-0.361-0.687-0.644-1.134-0.811-0.458-0.168-0.965-0.261-1.494-0.261-0.019 0-0.038 0-0.057 0-0.603 0.003-1.191 0.074-1.756 0.207l0.053 2.362c0.144-0.026 0.311-0.041 0.48-0.041s0.336 0.015 0.498 0.043c0.192 0.056 0.364 0.189 0.471 0.366 0.102 0.191 0.166 0.412 0.178 0.647 0 0.259 0 0.553 0 0.906v11.196h3.451v-8.863c-0-0.022-0.001-0.047-0.001-0.073 0-0.563 0.123-1.098 0.344-1.578 0.196-0.428 0.488-0.808 0.848-1.11 0.365-0.296 0.79-0.525 1.253-0.664 0.458-0.144 0.955-0.223 1.471-0.223 0.016 0 0.032 0 0.048 0 0.006-0 0.015-0 0.025-0 0.899 0 1.746 0.217 2.494 0.603l-0.031-0.014z"></path>
<path fill="#00a2d3" d="M43.353 45.098c-0.21-0.077-0.381-0.222-0.488-0.407-0.112-0.209-0.177-0.452-0.179-0.71 0-0.275 0-0.589 0-0.961v-9.686c-0.878-0.398-1.918-0.755-2.995-1.014-1.092-0.262-2.204-0.397-3.349-0.397-0.003 0-0.006 0-0.009 0-0.089-0.003-0.193-0.005-0.298-0.005-1.143 0-2.24 0.196-3.26 0.555-2.019 0.706-3.664 2.243-4.52 4.204-0.484 1.051-0.769 2.219-0.803 3.449 0.023 1.092 0.208 2.12 0.531 3.085 0.263 0.876 0.707 1.7 1.283 2.411 0.57 0.688 1.299 1.247 2.129 1.619 0.894 0.388 1.891 0.605 2.94 0.605 0.062 0 0.123-0.001 0.185-0.002 0.044 0.002 0.107 0.003 0.17 0.003 1.108 0 2.148-0.292 3.047-0.803 0.941-0.549 1.687-1.41 2.095-2.441 0.007 0.037 0.004 0.12 0.004 0.203 0 0.628 0.147 1.221 0.41 1.747 0.226 0.412 0.574 0.761 0.996 0.99 0.435 0.226 0.934 0.356 1.463 0.359 0.048 0.001 0.104 0.002 0.159 0.002 0.52 0 1.027-0.051 1.519-0.147l-0.050-2.541c-0.147 0.035-0.316 0.054-0.49 0.054s-0.343-0.020-0.505-0.057zM39.216 39.863c0 0.015 0 0.032 0 0.050 0 1.307-0.403 2.52-1.092 3.52-0.618 0.831-1.62 1.377-2.75 1.377-0.069 0-0.138-0.002-0.206-0.006-0.078 0.007-0.18 0.011-0.283 0.011-1.149 0-2.183-0.494-2.901-1.282-0.656-0.856-1.049-1.937-1.049-3.11 0-0.093 0.002-0.186 0.007-0.278 0.013-0.808 0.17-1.587 0.447-2.308 0.235-0.619 0.587-1.192 1.028-1.684 0.419-0.459 0.935-0.831 1.516-1.082 0.604-0.259 1.274-0.403 1.978-0.403 0.004 0 0.008 0 0.012 0 0.561 0.001 1.111 0.051 1.645 0.146 0.582 0.093 1.155 0.264 1.694 0.5z"></path>
<path fill="#00a2d3" d="M60.039 33.784c-0.529-0.597-1.185-1.070-1.926-1.379-0.793-0.336-1.675-0.525-2.6-0.525-0.056 0-0.112 0.001-0.168 0.002 0.003-0-0.003-0-0.010-0-0.541 0-1.071 0.050-1.584 0.145-0.518 0.097-1.024 0.253-1.503 0.461-0.46 0.206-0.894 0.496-1.27 0.847-0.38 0.338-0.686 0.757-0.891 1.23-0.005-0.028-0.003-0.088-0.003-0.148 0-0.565-0.17-1.089-0.463-1.526-0.272-0.369-0.662-0.651-1.116-0.79-0.38-0.112-0.798-0.173-1.231-0.173-0.117 0-0.233 0.005-0.348 0.013-0.615 0.036-1.2 0.113-1.771 0.228l0.080 2.339c0.138-0.020 0.298-0.032 0.461-0.032s0.322 0.012 0.479 0.034c0.185 0.038 0.357 0.151 0.471 0.309 0.118 0.193 0.19 0.422 0.198 0.667 0 0.296 0 0.669 0 1.1v10.961h3.529v-8.725c-0-0.015-0-0.032-0-0.049 0-0.596 0.115-1.166 0.325-1.688 0.185-0.479 0.464-0.916 0.814-1.285 0.342-0.351 0.752-0.635 1.209-0.832 0.476-0.207 1.001-0.322 1.553-0.323 0.008-0 0.018-0 0.027-0 1.003 0 1.913 0.396 2.583 1.040 0.626 0.656 1.012 1.547 1.012 2.53 0 0.11-0.005 0.219-0.014 0.326l0.001 9.065h3.529v-9.059c0-0.023 0-0.050 0-0.077 0-0.923-0.136-1.814-0.39-2.654-0.225-0.743-0.608-1.443-1.108-2.042z"></path>
<path fill="#00a2d3" d="M75.647 39.569c-0.566-0.311-1.222-0.555-1.915-0.698-0.81-0.165-1.614-0.282-2.418-0.4-1.017-0.101-1.948-0.302-2.838-0.595-0.457-0.146-0.849-0.651-0.849-1.248 0-0.007 0-0.014 0-0.021-0.003-0.035-0.005-0.078-0.005-0.121 0-0.298 0.090-0.575 0.244-0.805 0.18-0.275 0.424-0.501 0.712-0.656 0.31-0.18 0.656-0.321 1.023-0.411 0.37-0.093 0.763-0.143 1.168-0.143 0.019 0 0.038 0 0.058 0 0.182-0.015 0.397-0.023 0.615-0.023s0.433 0.008 0.646 0.025c0.389 0.058 0.765 0.175 1.113 0.342 0.301 0.145 0.575 0.356 0.797 0.614 0.199 0.249 0.318 0.563 0.318 0.906 0 0.020-0 0.041-0.001 0.061l3.079-0.003c0.001-0.036 0.002-0.078 0.002-0.121 0-0.677-0.183-1.312-0.502-1.858-0.355-0.576-0.835-1.062-1.404-1.423-0.626-0.403-1.334-0.707-2.090-0.884-0.798-0.196-1.661-0.303-2.55-0.303-0.016 0-0.032 0-0.047 0 0.002 0 0.001 0 0 0-0.862 0-1.7 0.107-2.499 0.309-0.726 0.175-1.427 0.486-2.052 0.902-0.571 0.383-1.063 0.887-1.435 1.474-0.37 0.601-0.583 1.304-0.583 2.057 0 0.042 0.001 0.084 0.002 0.126-0.001 0.017-0.001 0.044-0.001 0.071 0 0.755 0.251 1.451 0.674 2.010 0.421 0.506 0.96 0.912 1.574 1.177 0.639 0.294 1.349 0.519 2.092 0.65l2.445 0.361c0.926 0.093 1.777 0.308 2.572 0.63 0.505 0.197 0.9 0.738 0.9 1.371 0 0.027-0.001 0.054-0.002 0.081-0.005 0.437-0.143 0.844-0.377 1.18-0.218 0.301-0.508 0.547-0.845 0.713-0.354 0.172-0.748 0.301-1.163 0.375-0.409 0.076-0.849 0.119-1.299 0.122-0.014 0-0.028 0-0.041 0-0.431 0-0.851-0.050-1.253-0.145-0.379-0.091-0.745-0.239-1.081-0.434-0.308-0.178-0.582-0.42-0.799-0.708-0.211-0.297-0.34-0.655-0.358-1.042l-3.471-0.004c0.031 0.892 0.305 1.715 0.756 2.411 0.414 0.608 0.959 1.121 1.593 1.498 0.661 0.391 1.406 0.672 2.199 0.811 0.779 0.143 1.63 0.222 2.498 0.222 0.018 0 0.036-0 0.054-0-0.002 0-0.002 0-0.001 0 0.89 0 1.755-0.107 2.583-0.309 0.742-0.17 1.463-0.475 2.111-0.884 0.588-0.377 1.095-0.89 1.47-1.492 0.358-0.61 0.562-1.32 0.562-2.077 0-0.042-0.001-0.084-0.002-0.125 0.004-0.055 0.006-0.127 0.006-0.199 0-0.742-0.206-1.436-0.564-2.028-0.353-0.533-0.835-0.977-1.401-1.286z"></path>
<path fill="#00a2d3" d="M114.784 33.784c-0.529-0.597-1.185-1.070-1.926-1.379-0.793-0.336-1.675-0.525-2.6-0.525-0.056 0-0.112 0.001-0.168 0.002 0.002-0-0.006-0-0.013-0-0.54 0-1.068 0.050-1.581 0.145-0.518 0.097-1.024 0.253-1.503 0.461-0.451 0.196-0.879 0.473-1.252 0.809-0.378 0.338-0.683 0.756-0.889 1.228-0.006-0.027-0.004-0.084-0.004-0.142 0-0.566-0.17-1.093-0.462-1.531-0.274-0.367-0.664-0.649-1.115-0.79-0.381-0.112-0.8-0.173-1.234-0.173-0.116 0-0.232 0.004-0.346 0.013-0.615 0.035-1.2 0.112-1.771 0.228l0.080 2.379c0.138-0.021 0.298-0.033 0.461-0.033s0.322 0.012 0.479 0.035c0.185 0.038 0.357 0.151 0.471 0.309 0.117 0.193 0.189 0.422 0.198 0.667 0 0.296 0 0.669 0 1.1v10.961h3.529v-8.725c-0.001-0.027-0.001-0.059-0.001-0.091 0-0.58 0.108-1.136 0.306-1.646 0.191-0.479 0.476-0.916 0.833-1.283 0.342-0.352 0.753-0.637 1.21-0.833 0.478-0.208 1.006-0.323 1.561-0.323 0.004 0 0.008 0 0.013 0 0.007-0 0.016-0 0.026-0 1.003 0 1.913 0.396 2.583 1.040 0.626 0.656 1.012 1.547 1.012 2.53 0 0.11-0.005 0.219-0.014 0.326l0.001 9.064h3.529v-9.059c0-0.021 0-0.045 0-0.069 0-0.926-0.136-1.82-0.39-2.663-0.225-0.742-0.608-1.443-1.108-2.042z"></path>
<path fill="#00a2d3" d="M120.941 25.333c-0.004-0-0.010-0-0.015-0-0.553 0-1.061 0.192-1.46 0.513-0.396 0.333-0.649 0.835-0.649 1.395 0 0.053 0.002 0.105 0.007 0.157-0.003 0.027-0.004 0.066-0.004 0.106 0 0.587 0.258 1.115 0.668 1.474 0.377 0.308 0.86 0.494 1.387 0.494 0.030 0 0.060-0.001 0.090-0.002 0.537-0.027 1.025-0.23 1.411-0.552 0.39-0.391 0.634-0.935 0.634-1.536s-0.244-1.145-0.638-1.539c-0.386-0.317-0.884-0.51-1.428-0.51-0.008 0-0.016 0-0.024 0z"></path>
<path fill="#00a2d3" d="M119.176 32.157h3.49v15.451h-3.49v-15.451z"></path>
<path fill="#00a2d3" d="M138.961 33.804c-0.75-0.633-1.639-1.129-2.612-1.436-0.967-0.313-2.017-0.486-3.108-0.486-0.023 0-0.045 0-0.068 0-0.006-0-0.017-0-0.027-0-1.049 0-2.057 0.18-2.993 0.51-0.929 0.324-1.784 0.831-2.513 1.478-0.746 0.677-1.355 1.505-1.777 2.437-0.454 1.015-0.707 2.145-0.707 3.334 0 0.064 0.001 0.128 0.002 0.192-0.001 0.045-0.002 0.11-0.002 0.174 0 1.218 0.261 2.375 0.729 3.418 0.432 0.94 1.054 1.781 1.815 2.471 0.732 0.655 1.594 1.169 2.542 1.5s1.979 0.512 3.053 0.512 2.105-0.182 3.065-0.516c0.942-0.329 1.81-0.843 2.551-1.497 0.77-0.685 1.398-1.527 1.835-2.476 0.462-1.093 0.719-2.309 0.719-3.586s-0.257-2.493-0.723-3.6c-0.417-0.924-1.041-1.756-1.811-2.421zM137.569 42c-0.255 0.603-0.606 1.117-1.039 1.549-0.409 0.4-0.898 0.72-1.442 0.931-0.527 0.209-1.104 0.324-1.708 0.324-0.010 0-0.019-0-0.029-0-0.626-0.002-1.225-0.117-1.779-0.325-0.558-0.201-1.067-0.514-1.497-0.913-0.454-0.428-0.82-0.951-1.065-1.536-0.272-0.652-0.424-1.375-0.424-2.133 0-0.033 0-0.065 0.001-0.098-0.001-0.027-0.001-0.065-0.001-0.103 0-0.731 0.144-1.429 0.406-2.065 0.225-0.556 0.571-1.059 1.005-1.472 0.408-0.383 0.89-0.689 1.423-0.894 0.528-0.201 1.105-0.321 1.707-0.343 0.064-0.002 0.127-0.004 0.191-0.004 0.566 0 1.111 0.095 1.618 0.269 0.566 0.189 1.083 0.497 1.517 0.894 0.456 0.417 0.827 0.926 1.083 1.498 0.273 0.634 0.425 1.339 0.425 2.079 0 0.044-0.001 0.088-0.002 0.132 0.001 0.035 0.002 0.083 0.002 0.132 0 0.734-0.145 1.435-0.407 2.075z"></path>
<path fill="#00a2d3" d="M0 28.471v-3.294h16.667v3.294h-6.51v19.137h-3.647v-19.137h-6.51z"></path>
<path fill="#00a2d3" d="M80.275 40.078v-14.922h3.725v14.824c-0 0.014-0 0.030-0 0.046 0 2.523 2.045 4.569 4.569 4.569 0.173 0 0.343-0.010 0.511-0.028 0.139 0.022 0.323 0.033 0.51 0.033 2.502 0 4.529-2.028 4.529-4.529 0-0.032-0-0.063-0.001-0.095l0-14.819h3.686v14.922c0 5-3.922 7.843-8.686 7.843s-8.784-2.824-8.784-7.843z"></path>
<path fill="#00a2d3" d="M158.824 44v-5.451c0-0.022 0-0.048 0-0.075 0-0.924-0.136-1.816-0.39-2.657-0.225-0.743-0.608-1.443-1.108-2.042-0.523-0.587-1.178-1.060-1.918-1.37-0.794-0.337-1.677-0.525-2.604-0.525-0.055 0-0.11 0.001-0.165 0.002 0.002-0-0.006-0-0.013-0-0.54 0-1.068 0.050-1.581 0.146-0.518 0.097-1.024 0.254-1.503 0.461-0.451 0.196-0.879 0.473-1.252 0.809-0.378 0.337-0.684 0.756-0.889 1.228-0.006-0.027-0.004-0.084-0.004-0.143 0-0.566-0.17-1.093-0.462-1.531-0.273-0.368-0.663-0.65-1.115-0.79-0.38-0.112-0.799-0.173-1.232-0.173-0.117 0-0.233 0.005-0.348 0.013-0.615 0.035-1.2 0.112-1.771 0.228l0.080 2.398c0.138-0.020 0.298-0.032 0.461-0.032s0.322 0.012 0.479 0.034c0.185 0.038 0.357 0.151 0.471 0.309 0.117 0.193 0.189 0.422 0.198 0.667 0 0.296 0 0.649 0 1.1v10.961h3.529v-8.745c-0-0.025-0.001-0.054-0.001-0.084 0-0.583 0.108-1.14 0.306-1.653 0.191-0.479 0.476-0.916 0.833-1.283 0.342-0.352 0.753-0.637 1.21-0.833 0.478-0.208 1.006-0.323 1.561-0.323 0.004 0 0.008 0 0.013 0 0.007-0 0.017-0 0.026-0 1.003 0 1.913 0.396 2.583 1.040 0.637 0.661 1.030 1.562 1.030 2.556 0 0.101-0.004 0.201-0.012 0.299l0.001 5.575c0 3.765 2.353 4.157 5.353 3.569v-2.255c-1.529 0.157-1.824-0.255-1.824-1.431z"></path>
<path fill="#00a2d3" d="M167.941 0c-0.004 0-0.008 0-0.013 0-5.968 0-11.181 3.232-13.985 8.041-0.595 0.862-0.926 1.838-0.926 2.892 0 0.796 0.189 1.548 0.525 2.214 0.851 1.119 2.21 1.854 3.742 1.854 0.149 0 0.296-0.007 0.441-0.020l2.040 0.001-0.745 2.353c-0.159 0.441-0.251 0.95-0.251 1.48 0 0.907 0.269 1.752 0.732 2.458 0.713 0.93 1.843 1.534 3.114 1.534 0.046 0 0.092-0.001 0.137-0.002 0.022 0.001 0.056 0.001 0.090 0.001 1.008 0 1.966-0.217 2.829-0.606-0.277-0.316-0.482-0.697-0.639-1.103-0.143-0.376-0.246-0.773-0.303-1.184-0.536 0.171-1.153 0.287-1.796 0.287-0.059 0-0.118-0.001-0.177-0.003-0.008 0.001-0.028 0.001-0.048 0.001-0.456 0-0.865-0.205-1.138-0.528-0.166-0.271-0.263-0.595-0.263-0.943 0-0.218 0.038-0.427 0.109-0.621l1.016-3.144h3.176l0.843-2.627h-3.059l1.314-4.294h-2.706l-1.392 4.314h-2.902c-0.922 0-1.51-0.235-1.784-0.725s0-1.647 0.745-2.961v0c2.472-3.631 6.587-5.985 11.251-5.985 7.494 0 13.569 6.075 13.569 13.569s-6.075 13.569-13.569 13.569c-6.598 0-12.095-4.709-13.316-10.949l-2.583 0.444c1.511 7.505 8.051 13.078 15.893 13.078 8.945 0 16.196-7.251 16.196-16.196 0-8.935-7.235-16.18-16.166-16.196z"></path>
<path fill="#00a2d3" d="M178.255 20.569c-0.058 0.003-0.126 0.005-0.195 0.005-0.648 0-1.257-0.169-1.784-0.466-0.258-0.183-0.457-0.47-0.529-0.805l-0.002-0.009c-0.029-0.112-0.045-0.24-0.045-0.373s0.017-0.261 0.048-0.383l1.958-6.166h-2.686l-1.725 5.275c-0.494 1.374-1.723 2.366-3.2 2.509-0.023 0.001-0.033 0.002-0.042 0.002-0.389 0-0.738-0.174-0.971-0.449-0.139-0.206-0.221-0.458-0.221-0.729 0-0.183 0.038-0.358 0.105-0.516l1.958-6.168h-2.745l-1.706 5.353c-0.163 0.426-0.258 0.92-0.258 1.435 0 0.837 0.25 1.617 0.679 2.267 0.67 0.883 1.737 1.458 2.938 1.458 0.046 0 0.092-0.001 0.137-0.002 1.454-0.044 2.778-0.593 3.805-1.477 0.338 0.554 0.853 0.967 1.462 1.177 0.573 0.196 1.21 0.305 1.872 0.305 0.086 0 0.172-0.002 0.258-0.006 0.254-0.004 0.511-0.040 0.756-0.103l0.154-0.25 0.294-0.51 0.275-0.51 0.235-0.529 0.157-0.392c-0.149 0.008-0.324 0.013-0.5 0.013s-0.351-0.005-0.524-0.014z"></path>
<path fill="#00a2d3" d="M162.412 45.804c-0.006-0.060-0.010-0.131-0.010-0.202 0-1.148 0.931-2.078 2.078-2.078s2.078 0.931 2.078 2.078c0 0.071-0.004 0.141-0.011 0.21 0.007 0.052 0.011 0.122 0.011 0.193 0 1.148-0.931 2.078-2.078 2.078s-2.078-0.931-2.078-2.078c0-0.071 0.004-0.141 0.011-0.21zM166.196 45.804c0-0.942-0.764-1.706-1.706-1.706s-1.706 0.764-1.706 1.706c0 0.942 0.764 1.706 1.706 1.706s1.706-0.764 1.706-1.706zM165.412 46.765v0h-0.333l-0.51-0.706h-0.451v0.706h-0.314v-1.961h0.902c0.018-0.002 0.038-0.003 0.059-0.003 0.357 0 0.647 0.29 0.647 0.647 0 0.001 0 0.002 0 0.003 0.001 0.009 0.001 0.020 0.001 0.031 0 0.284-0.201 0.52-0.468 0.576zM164.137 45.863h0.569c0.012 0.001 0.025 0.002 0.039 0.002 0.217 0 0.392-0.176 0.392-0.392 0-0.001 0-0.001 0-0.002-0.010-0.209-0.181-0.374-0.392-0.374-0.014 0-0.028 0.001-0.041 0.002l-0.587-0z"></path>
</svg>
