<svg xmlns="http://www.w3.org/2000/svg" viewBox="0 0 31.99 32"><defs><style>.cls-1{fill:#f4da80;stroke:#f4da80;stroke-miterlimit:10;}.cls-2{fill:#f3b840;}</style></defs><title>Asset 1</title><g id="Layer_2" data-name="Layer 2"><g id="Layer_1-2" data-name="Layer 1"><path class="cls-1" d="M19.49,4.75C18.53,2.92,17.26,2,16,2s-2.53.91-3.49,2.75L2.74,23.34C.81,27,2.76,30,7.06,30H24.93c4.3,0,6.25-3,4.32-6.66ZM16,26a1.5,1.5,0,1,1,1.5-1.5A1.5,1.5,0,0,1,16,26Zm1.5-5h-3l-1-10h5Z"/><path class="cls-2" d="M21.26,3.82C20,1.39,18.07,0,16,0c-1.21,0-3.52.5-5.26,3.82L1,22.41A6.61,6.61,0,0,0,.79,29C2,30.9,4.24,32,7.06,32H24.93c2.82,0,5.11-1.1,6.26-3A6.58,6.58,0,0,0,31,22.41ZM24.93,30H7.06c-4.3,0-6.25-3-4.32-6.66L12.5,4.75C13.46,2.91,14.73,2,16,2s2.54.92,3.5,2.75l9.76,18.59C31.18,27,29.23,30,24.93,30Z"/><circle class="cls-2" cx="15.99" cy="24.5" r="1.5"/><polygon class="cls-2" points="14.49 21 17.5 21 18.5 11 13.49 11 14.49 21"/></g></g></svg>